<?xml version="1.0" standalone="no"?>
<!DOCTYPE svg PUBLIC "-//W3C//DTD SVG 1.1//EN" "http://www.w3.org/Graphics/SVG/1.1/DTD/svg11.dtd" >
<svg>
<metadata>
Created by FontForge 20110222 at Thu Jan 19 16:07:54 2012
 By www-data
Copyright (c) 2012, Agustina Mingote (agustinamingote@gmail.com), with Reserved Font Names "Gudea"
</metadata>
<defs>
<font id="Gudea-Italic" horiz-adv-x="466" >
  <font-face 
    font-family="Gudea"
    font-weight="400"
    font-style="italic"
    font-stretch="normal"
    units-per-em="1000"
    panose-1="2 0 0 0 0 0 0 0 0 0"
    ascent="800"
    descent="-200"
    x-height="500"
    cap-height="700"
    bbox="-77 -239 902 972"
    underline-thickness="50"
    underline-position="-50"
    stemh="65"
    stemv="69"
    unicode-range="U+0020-2122"
  />
    <missing-glyph />
    <glyph glyph-name="space" unicode=" " horiz-adv-x="225" 
 />
    <glyph glyph-name="t" unicode="t" horiz-adv-x="311" 
d="M71 440l8 60h62l21 143h67l-21 -143h110l-8 -60h-111l-45 -318c-1 -6 -1 -13 -1 -18c0 -36 20 -49 53 -49c14 0 25 2 46 6l2 -54c-23 -8 -44 -13 -69 -13c-50 0 -102 20 -102 90c0 7 1 15 2 24l47 332h-61z" />
    <glyph glyph-name="o" unicode="o" 
d="M274 445c-114 0 -155 -124 -155 -244c0 -98 27 -142 99 -142c115 0 161 111 161 233c0 104 -33 153 -105 153zM212 -6c-112 0 -162 71 -162 205c0 172 83 311 233 311c106 0 165 -70 165 -211c0 -164 -79 -305 -236 -305z" />
    <glyph glyph-name="n" unicode="n" horiz-adv-x="498" 
d="M186 397l-55 -397h-67l70 500h43l4 -49c33 26 74 59 144 59c71 0 124 -43 124 -128c0 -11 -1 -23 -3 -35l-48 -347h-67l45 325c2 12 3 24 3 34c0 56 -26 87 -77 87c-47 0 -90 -25 -116 -49z" />
    <glyph glyph-name="r" unicode="r" horiz-adv-x="334" 
d="M184 382l-53 -382h-67l70 500h43l3 -59c59 47 95 69 147 69c24 0 37 -6 38 -6l-20 -69c-8 3 -24 6 -43 6c-39 0 -87 -30 -118 -59z" />
    <glyph glyph-name="p" unicode="p" horiz-adv-x="491" 
d="M106 -236h-68l103 736h40l15 -57c46 34 95 67 154 67c93 0 132 -65 132 -173c0 -210 -72 -343 -222 -343c-59 0 -94 29 -115 48zM192 376l-38 -266c21 -33 64 -52 100 -52c114 0 156 111 156 257c0 88 -31 130 -75 130c-63 0 -110 -41 -143 -69z" />
    <glyph glyph-name="e" unicode="e" horiz-adv-x="440" 
d="M368 87l2 -58c-57 -21 -94 -35 -145 -35c-101 0 -173 55 -173 190c0 146 66 326 228 326c92 0 143 -47 143 -124c0 -85 -72 -155 -244 -155c-17 0 -35 1 -55 3c-3 -17 -4 -32 -4 -46c0 -102 60 -130 121 -130c47 0 78 13 127 29zM135 291c16 -2 33 -3 49 -3
c87 0 174 25 174 93c0 39 -22 64 -87 64c-84 0 -118 -73 -136 -154z" />
    <glyph glyph-name="a" unicode="a" horiz-adv-x="484" 
d="M392 0h-39l-16 59l-13 -11c-44 -37 -91 -55 -140 -55c-94 0 -132 66 -132 174c0 162 59 343 222 343c61 0 103 -21 133 -64l16 54h40zM379 400c-25 24 -58 45 -101 45c-121 0 -156 -146 -156 -267c0 -81 26 -120 75 -120c67 0 141 58 154 147z" />
    <glyph glyph-name="v" unicode="v" horiz-adv-x="401" 
d="M443 500l-220 -500h-82l-79 500h79l53 -420l172 420h77z" />
    <glyph glyph-name="E" unicode="E" horiz-adv-x="488" 
d="M396 0h-339l98 700h339l-9 -65h-272l-31 -222h250l-9 -67h-250l-40 -281h272z" />
    <glyph glyph-name="F" unicode="F" horiz-adv-x="459" 
d="M495 700l-9 -65h-273l-31 -222h251l-9 -67h-251l-49 -346h-67l98 700h340z" />
    <glyph glyph-name="O" unicode="O" horiz-adv-x="584" 
d="M265 -5c-144 0 -205 114 -205 266c0 200 86 449 306 449c145 0 207 -112 207 -265c0 -199 -89 -450 -308 -450zM358 645c-167 0 -224 -234 -224 -371c0 -120 42 -213 141 -213c164 0 225 233 225 367c0 116 -43 217 -142 217z" />
    <glyph glyph-name="T" unicode="T" horiz-adv-x="454" 
d="M170 0l89 633h-177l9 67h418l-9 -67h-175l-89 -633h-66z" />
    <glyph glyph-name="L" unicode="L" horiz-adv-x="426" 
d="M394 0h-337l98 700h67l-89 -635h270z" />
    <glyph glyph-name="A" unicode="A" horiz-adv-x="521" 
d="M484 0h-75l-32 221h-226l-93 -221h-70l304 700h82zM370 286l-48 338l-145 -338h193z" />
    <glyph glyph-name="N" unicode="N" horiz-adv-x="611" 
d="M504 -1h-74l-224 561l-79 -560h-70l98 700h70l229 -582l81 582h67z" />
    <glyph glyph-name="Y" unicode="Y" horiz-adv-x="496" 
d="M558 700l-261 -385l-44 -315h-68l44 315l-145 385h75l114 -324l212 324h73z" />
    <glyph glyph-name="S" unicode="S" horiz-adv-x="496" 
d="M469 675l-24 -67c2 0 -78 32 -139 32c-79 0 -122 -55 -122 -119c0 -160 266 -83 266 -294c0 -127 -97 -233 -240 -233c-75 0 -143 29 -178 55l30 57s78 -42 153 -42c84 0 161 54 161 142c0 162 -265 93 -265 302c0 111 75 202 204 202c50 0 105 -14 154 -35z" />
    <glyph glyph-name="H" unicode="H" horiz-adv-x="598" 
d="M491 0h-68l46 331h-298l-46 -331h-68l98 700h68l-42 -304h298l42 304h68z" />
    <glyph glyph-name="I" unicode="I" horiz-adv-x="231" 
d="M124 0h-67l98 700h67z" />
    <glyph glyph-name="V" unicode="V" horiz-adv-x="492" 
d="M553 700l-292 -700h-95l-81 700h76l67 -615l251 615h74z" />
    <glyph glyph-name="h" unicode="h" horiz-adv-x="500" 
d="M393 0h-67l46 326c2 12 3 24 3 34c0 56 -26 87 -77 87c-47 0 -93 -24 -118 -48l-56 -399h-67l98 700h66l-33 -240c33 26 63 50 133 50s123 -43 123 -129c0 -10 -1 -23 -2 -33z" />
    <glyph glyph-name="d" unicode="d" horiz-adv-x="487" 
d="M412 700h68l-99 -700h-40l-15 57c-53 -38 -99 -65 -153 -65c-94 0 -132 66 -132 174c0 218 86 343 222 343c51 0 93 -29 115 -49zM331 124l36 260c-20 33 -62 61 -98 61c-114 0 -156 -123 -156 -259c0 -87 30 -129 74 -129c63 0 111 39 144 67z" />
    <glyph glyph-name="c" unicode="c" horiz-adv-x="390" 
d="M340 78l4 -59c-47 -15 -87 -24 -130 -24c-111 0 -161 73 -161 192c0 159 59 323 239 323c53 0 88 -15 115 -24l-35 -58c-26 9 -57 16 -87 16c-126 0 -157 -144 -157 -253c0 -85 31 -131 102 -131c38 0 70 6 110 18z" />
    <glyph glyph-name="s" unicode="s" horiz-adv-x="393" 
d="M35 33l24 56s55 -30 112 -30c65 0 116 38 116 104c0 101 -197 68 -197 195c0 94 65 152 160 152c54 0 119 -22 116 -24l-21 -64c1 0 -51 23 -102 23c-54 0 -83 -25 -83 -76c0 -78 196 -59 196 -200c0 -105 -77 -175 -190 -175c-52 0 -105 21 -131 39z" />
    <glyph glyph-name="i" unicode="i" horiz-adv-x="206" 
d="M45 0l70 500h67l-70 -500h-67zM210 700l-12 -89h-67l12 89h67z" />
    <glyph glyph-name="g" unicode="g" horiz-adv-x="487" 
d="M334 53l-6 -5c-47 -34 -91 -55 -140 -55c-94 0 -132 66 -132 174c0 220 96 343 222 343c51 0 90 -26 116 -74l32 65h40l-72 -522c-21 -151 -107 -215 -211 -215c-52 0 -88 16 -140 39l20 53c50 -19 87 -27 129 -27c53 0 117 38 131 141zM344 125l25 179c1 9 3 25 3 32
c0 71 -52 109 -90 109c-117 0 -156 -121 -156 -267c0 -81 26 -120 75 -120c63 0 111 39 143 67z" />
    <glyph glyph-name="q" unicode="q" horiz-adv-x="487" 
d="M347 139l33 230c-18 43 -77 76 -120 76c-87 0 -133 -124 -133 -262c0 -69 21 -124 93 -124c46 0 98 31 127 80zM363 -236h-68l41 293c-19 -16 -51 -63 -134 -63c-78 0 -147 47 -147 179c0 173 64 337 218 337c51 0 93 -34 122 -67l31 57h40z" />
    <glyph glyph-name="one" unicode="1" horiz-adv-x="467" 
d="M12 0l9 65h176l79 561l-171 -111l-25 56l206 129h67l-89 -635h138l-9 -65h-381z" />
    <glyph glyph-name="l" unicode="l" horiz-adv-x="231" 
d="M57 0l98 700h67l-98 -700h-67z" />
    <glyph glyph-name="w" unicode="w" horiz-adv-x="611" 
d="M121 0l-61 500h72l41 -421l150 421h70l38 -425l150 425h74l-193 -500h-83l-36 395l-140 -395h-82z" />
    <glyph glyph-name="x" unicode="x" horiz-adv-x="392" 
d="M153 500l70 -176l117 176h77l-166 -245l102 -255h-75l-72 198l-126 -198h-77l174 255l-98 245h74z" />
    <glyph glyph-name="z" unicode="z" horiz-adv-x="379" 
d="M96 500h276l-8 -60l-249 -375h207l-9 -65h-287l8 60l249 375h-196z" />
    <glyph glyph-name="u" unicode="u" horiz-adv-x="489" 
d="M339 127l52 373h68l-70 -500h-39l-15 59c-32 -26 -83 -65 -153 -65c-67 0 -108 43 -108 123c0 12 1 26 3 40l48 343h67l-46 -331c-2 -17 -4 -31 -4 -44c0 -46 17 -67 59 -67c49 0 111 40 138 69z" />
    <glyph glyph-name="ydieresis" unicode="&#xff;" horiz-adv-x="400" 
d="M167 596l14 106h64l-14 -106h-64zM329 596l14 106h63l-14 -106h-63zM70 500l81 -510c-28 -90 -90 -148 -135 -174l19 -52c80 44 132 105 191 236l225 500h-75l-174 -420l-55 420h-77z" />
    <glyph glyph-name="j" unicode="j" horiz-adv-x="200" 
d="M213 700l-13 -88h-67l13 88h67zM-17 -204c34 43 49 96 60 170l75 534h67l-72 -510c-17 -117 -45 -176 -97 -229z" />
    <glyph glyph-name="m" unicode="m" horiz-adv-x="765" 
d="M64 0l70 500h44l4 -52c35 29 74 62 143 62c52 0 95 -22 115 -68c35 28 87 68 152 68c70 0 125 -40 125 -126c0 -10 -1 -23 -2 -32l-49 -352h-66l45 321c2 12 2 22 2 32c0 62 -30 92 -76 92c-51 0 -107 -39 -121 -50c0 -13 0 -28 -2 -43l-49 -352h-66l45 321
c2 12 3 23 3 33c0 61 -31 91 -76 91c-59 0 -88 -24 -118 -48l-55 -397h-68z" />
    <glyph glyph-name="b" unicode="b" horiz-adv-x="491" 
d="M154 700h68l-35 -250c51 36 96 61 148 61c94 0 132 -66 132 -174c0 -142 -49 -343 -222 -343c-51 0 -100 33 -122 55l-27 -49h-40zM177 379l-38 -272c21 -33 64 -49 100 -49c127 0 156 159 156 259c0 87 -30 129 -74 129c-63 0 -111 -39 -144 -67z" />
    <glyph glyph-name="y" unicode="y" horiz-adv-x="401" 
d="M151 -10l-81 510h77l55 -420l174 420h75l-225 -500c-59 -131 -111 -192 -191 -236l-19 52c45 26 107 84 135 174z" />
    <glyph glyph-name="k" unicode="k" horiz-adv-x="458" 
d="M155 700h67l-58 -412l223 212h85l-218 -203l158 -297h-76l-129 250l-56 -54l-27 -196h-67z" />
    <glyph glyph-name="nine" unicode="9" horiz-adv-x="501" 
d="M258 281c-110 0 -171 55 -171 158c0 148 84 271 232 271c126 0 176 -88 176 -211c0 -231 -79 -505 -308 -505c-79 0 -131 33 -131 33l24 60s59 -27 124 -27c114 0 169 114 197 258c-22 -12 -81 -37 -143 -37zM304 645c-87 0 -143 -94 -143 -191c0 -76 41 -108 109 -108
c62 0 126 35 145 46v4c5 33 7 64 7 91c0 100 -34 158 -118 158z" />
    <glyph glyph-name="M" unicode="M" horiz-adv-x="663" 
d="M588 0h-68l81 574l-257 -390l-24 1l-148 388l-80 -573h-67l98 700h76l152 -385l267 385h68z" />
    <glyph glyph-name="seven" unicode="7" horiz-adv-x="456" 
d="M87 625l10 75h405l-10 -75l-362 -625h-79l361 625h-325z" />
    <glyph glyph-name="C" unicode="C" horiz-adv-x="526" 
d="M286 -6c-149 0 -224 103 -224 268c0 247 125 447 333 447c56 0 90 -8 138 -29l-24 -62c-42 21 -96 26 -127 26c-183 0 -244 -224 -244 -366c0 -135 52 -219 154 -219c56 0 115 18 160 44l10 -57c-33 -20 -95 -52 -176 -52z" />
    <glyph glyph-name="zero" unicode="0" horiz-adv-x="522" 
d="M512 482c0 -160 -34 -488 -282 -488c-133 0 -171 103 -171 229c0 160 34 487 282 487c133 0 171 -102 171 -228zM245 59c143 0 194 250 194 406c0 104 -28 180 -112 180c-142 0 -195 -249 -195 -405c0 -104 29 -181 113 -181z" />
    <glyph glyph-name="f" unicode="f" horiz-adv-x="261" 
d="M204 440l-62 -450c-16 -117 -45 -176 -97 -229l-33 35c34 43 49 96 59 170l65 474h-69l9 60h68l12 86c14 97 80 124 135 124c26 0 44 -5 66 -13l-18 -54c-20 4 -30 6 -43 6c-39 0 -66 -17 -73 -67l-11 -82h93l-9 -60h-92z" />
    <glyph glyph-name="R" unicode="R" horiz-adv-x="543" 
d="M226 328h-56l-46 -328h-67l98 700h182c110 0 162 -52 162 -141c0 -91 -62 -193 -150 -206c51 -15 63 -29 84 -119l56 -234h-71l-56 224c-22 86 -50 104 -136 104zM324 636h-111l-34 -244h102c87 0 142 72 142 152c0 61 -37 92 -99 92z" />
    <glyph glyph-name="P" unicode="P" horiz-adv-x="487" 
d="M257 294h-92l-41 -294h-67l98 700h150c128 0 197 -49 197 -146c0 -160 -90 -260 -245 -260zM295 636h35h-117l-39 -278h60c126 0 199 49 199 173c0 72 -42 105 -138 105z" />
    <glyph glyph-name="Q" unicode="Q" horiz-adv-x="586" 
d="M470 96l74 -101l-51 -49l-72 101c-43 -34 -95 -54 -155 -54c-145 0 -206 117 -206 270c0 182 82 447 307 447c144 0 208 -111 208 -264c0 -127 -30 -244 -105 -350zM369 238l61 -89c49 77 71 182 71 279c0 116 -43 218 -143 218c-164 0 -223 -232 -223 -372
c0 -120 42 -215 141 -215c42 0 77 14 107 38l-66 92z" />
    <glyph glyph-name="four" unicode="4" horiz-adv-x="486" 
d="M273 0l18 131h-284l7 49l265 520h72l-257 -504h206l27 186h65l-27 -186h74l-9 -65h-74l-18 -131h-65z" />
    <glyph glyph-name="five" unicode="5" horiz-adv-x="503" 
d="M221 60c99 0 168 83 168 186c0 79 -59 114 -154 114c-57 0 -119 1 -119 1l69 339h321l-13 -65h-259l-39 -211s28 1 56 1c129 0 212 -58 212 -163c0 -141 -91 -268 -257 -268c-100 0 -167 53 -167 53l28 53s76 -40 154 -40z" />
    <glyph glyph-name="three" unicode="3" horiz-adv-x="475" 
d="M153 391h85c83 0 146 70 146 163c0 57 -29 91 -101 91c-68 0 -150 -41 -150 -41l-5 58s78 48 162 48c117 0 168 -57 168 -142c0 -100 -52 -190 -148 -209c71 -7 121 -53 121 -135c0 -133 -88 -230 -249 -230c-98 0 -157 47 -157 47l30 56s69 -38 147 -38
c84 0 154 59 154 152c0 70 -43 115 -127 115h-85z" />
    <glyph glyph-name="six" unicode="6" horiz-adv-x="518" 
d="M307 423c113 0 176 -55 176 -159c0 -147 -87 -270 -236 -270c-127 0 -178 79 -178 214c0 241 88 502 310 502c79 0 131 -33 131 -33l-25 -60s-59 27 -124 27c-115 0 -169 -114 -198 -258c24 11 81 37 144 37zM261 59c99 0 149 109 149 189c0 77 -43 110 -115 110
c-63 0 -127 -36 -145 -47c-5 -34 -7 -65 -7 -93c0 -102 34 -159 118 -159z" />
    <glyph glyph-name="two" unicode="2" horiz-adv-x="472" 
d="M407 65l-10 -65h-370l10 72c218 226 355 346 355 483c0 71 -47 90 -104 90c-76 0 -150 -21 -150 -21l-5 58s73 28 162 28c116 0 172 -54 172 -138c0 -163 -139 -298 -347 -507h287z" />
    <glyph glyph-name="eight" unicode="8" horiz-adv-x="518" 
d="M511 568c0 -85 -54 -170 -124 -224c49 -29 91 -66 91 -127c0 -135 -107 -223 -251 -223c-126 0 -177 73 -177 158c0 93 61 166 145 212c-45 28 -77 65 -77 126c0 128 93 220 228 220c108 0 165 -65 165 -142zM245 57c75 0 159 55 159 142c0 66 -66 97 -151 133
c-64 -29 -131 -88 -131 -167c0 -60 35 -108 123 -108zM332 374c51 37 105 101 105 174c0 56 -38 97 -103 97c-70 0 -144 -51 -144 -133c0 -68 85 -119 142 -138z" />
    <glyph glyph-name="B" unicode="B" horiz-adv-x="528" 
d="M57 0l98 700h180c116 0 170 -53 170 -142c0 -92 -60 -169 -140 -179c79 -9 121 -69 121 -143c0 -133 -94 -236 -255 -236h-174zM136 65h125c88 0 154 76 154 161c0 66 -41 117 -134 117h-106zM216 635l-32 -228h106c75 0 144 56 144 138c0 59 -34 90 -103 90h-115z" />
    <glyph glyph-name="W" unicode="W" horiz-adv-x="675" 
d="M737 699l-248 -699h-78l-35 406l-169 -406h-74l-49 699h78l23 -614l180 425h51l50 -425l200 614h71z" />
    <glyph glyph-name="G" unicode="G" horiz-adv-x="582" 
d="M300 -6c-153 0 -240 108 -240 279c0 213 108 437 333 437c56 0 114 -14 162 -36l-24 -62c-42 21 -122 33 -153 33c-174 0 -243 -214 -243 -352c0 -141 63 -234 164 -234c45 0 88 10 124 25l30 206h-132l9 65h199l-43 -307c-34 -20 -104 -54 -186 -54z" />
    <glyph glyph-name="D" unicode="D" horiz-adv-x="583" 
d="M570 434c0 -209 -142 -434 -381 -434h-132l98 700h160c161 0 255 -109 255 -266zM206 65c177 0 286 199 286 366c0 134 -85 204 -183 204h-90l-80 -570h67z" />
    <glyph glyph-name="U" unicode="U" horiz-adv-x="598" 
d="M273 -6c-121 0 -185 65 -185 196c0 21 2 44 5 68l62 442h68l-63 -454c-3 -18 -4 -38 -4 -48c0 -89 44 -139 126 -139c91 0 158 65 175 187l63 454h69l-62 -442c-24 -176 -114 -264 -254 -264z" />
    <glyph glyph-name="Z" unicode="Z" horiz-adv-x="457" 
d="M406 0h-395l9 62l368 573h-289l9 65h368l-8 -57l-366 -577h313z" />
    <glyph glyph-name="J" unicode="J" horiz-adv-x="308" 
d="M102 700h198l-69 -489c-20 -141 -71 -218 -166 -218c-36 0 -62 4 -87 11l9 63c14 -3 34 -9 77 -9c65 0 90 81 102 170l58 413h-131z" />
    <glyph glyph-name="exclam" unicode="!" horiz-adv-x="240" 
d="M156 190h-67l71 511h67zM128 0h-67l13 93h67z" />
    <glyph glyph-name="quotedbl" unicode="&#x22;" horiz-adv-x="340" 
d="M311 442h-68l37 259h68zM138 442h-68l37 259h68z" />
    <glyph glyph-name="parenleft" unicode="(" horiz-adv-x="254" 
d="M266 764l58 -13c-108 -172 -174 -370 -174 -572c0 -104 18 -203 50 -297l-64 -12c-37 96 -55 199 -55 305c0 206 67 411 185 589z" />
    <glyph glyph-name="parenright" unicode=")" horiz-adv-x="253" 
d="M36 -130l-58 13c108 172 174 370 174 572c0 104 -18 203 -50 297l64 12c37 -96 55 -199 55 -305c0 -206 -67 -411 -185 -589z" />
    <glyph glyph-name="plus" unicode="+" horiz-adv-x="422" 
d="M411 262h-155l-27 -193h-68l27 193h-147l10 65h147l28 200h68l-28 -200h155z" />
    <glyph glyph-name="quotesingle" unicode="'" horiz-adv-x="167" 
d="M133 367h-67l37 259h67z" />
    <glyph glyph-name="comma" unicode="," horiz-adv-x="219" 
d="M182 87l-139 -259l-41 16l115 267z" />
    <glyph glyph-name="hyphen" unicode="-" horiz-adv-x="259" 
d="M230 254h-171l10 75h171z" />
    <glyph glyph-name="period" unicode="." horiz-adv-x="165" 
d="M112 0h-67l15 106h67z" />
    <glyph glyph-name="asterisk" unicode="*" horiz-adv-x="387" 
d="M375 490l-36 -58l-96 81l-8 -143h-59l29 143l-118 -81l-21 53l126 63l-107 63l39 55l91 -82l11 143h59l-32 -143l118 81l20 -57l-125 -58z" />
    <glyph glyph-name="slash" unicode="/" horiz-adv-x="442" 
d="M495 800l-425 -945h-71l425 945h71z" />
    <glyph glyph-name="colon" unicode=":" horiz-adv-x="195" 
d="M113 0h-67l15 106h67zM168 394h-67l15 106h67z" />
    <glyph glyph-name="semicolon" unicode=";" horiz-adv-x="249" 
d="M228 394h-68l15 106h68zM185 89l-138 -259l-42 16l119 267z" />
    <glyph glyph-name="equal" unicode="=" horiz-adv-x="522" 
d="M484 361h-387l9 65h387zM456 163h-387l9 65h387z" />
    <glyph glyph-name="numbersign" unicode="#" horiz-adv-x="557" 
d="M569 465h-94l-47 -209h88l-9 -65h-95l-44 -191h-68l45 191h-143l-45 -191h-69l45 191h-104l9 65h110l49 209h-107l9 65h112l40 170h68l-40 -170h143l41 170h67l-38 -170h86zM409 465h-143l-50 -209h143z" />
    <glyph glyph-name="bracketleft" unicode="[" horiz-adv-x="306" 
d="M220 -200h-189l141 1000h187l-9 -65h-119l-123 -871h121z" />
    <glyph glyph-name="bracketright" unicode="]" horiz-adv-x="306" 
d="M174 -200h-188l9 64h121l123 871h-119l9 65h186z" />
    <glyph glyph-name="grave" unicode="`" horiz-adv-x="352" 
d="M275 592l-56 -21l-99 132l73 30z" />
    <glyph glyph-name="agrave" unicode="&#xe0;" horiz-adv-x="464" 
d="M364 0h-39l-16 59l-13 -11c-44 -37 -91 -55 -140 -55c-94 0 -132 66 -132 174c0 162 59 343 222 343c61 0 103 -21 133 -64l16 54h40zM351 400c-25 24 -58 45 -101 45c-121 0 -156 -146 -156 -267c0 -81 26 -120 75 -120c67 0 141 58 154 147zM315 592l-56 -21l-99 132
l73 30z" />
    <glyph glyph-name="egrave" unicode="&#xe8;" horiz-adv-x="440" 
d="M368 87l2 -58c-57 -21 -94 -35 -145 -35c-101 0 -173 55 -173 190c0 146 66 326 228 326c92 0 143 -47 143 -124c0 -85 -72 -155 -244 -155c-17 0 -35 1 -55 3c-3 -17 -4 -32 -4 -46c0 -102 60 -130 121 -130c47 0 78 13 127 29zM135 291c16 -2 33 -3 49 -3
c87 0 174 25 174 93c0 39 -22 64 -87 64c-84 0 -118 -73 -136 -154zM316 592l-56 -21l-99 132l73 30z" />
    <glyph glyph-name="igrave" unicode="&#xec;" horiz-adv-x="204" 
d="M52 0l70 500h65l-70 -500h-65zM157 586l-56 -21l-99 132l73 30z" />
    <glyph glyph-name="ugrave" unicode="&#xf9;" horiz-adv-x="499" 
d="M400 500l-52 -373c-27 -29 -89 -69 -138 -69c-42 0 -59 21 -59 67c0 13 2 27 4 44l46 331h-67l-48 -343c-2 -14 -3 -28 -3 -40c0 -80 41 -123 108 -123c70 0 121 39 153 65l15 -59h39l70 500h-68zM337 592l-56 -21l-99 132l73 30z" />
    <glyph glyph-name="ograve" unicode="&#xf2;" 
d="M274 445c72 0 105 -49 105 -153c0 -122 -46 -233 -161 -233c-72 0 -99 44 -99 142c0 120 41 244 155 244zM212 -6c157 0 236 141 236 305c0 141 -59 211 -165 211c-150 0 -233 -139 -233 -311c0 -134 50 -205 162 -205zM331 592l-56 -21l-99 132l73 30z" />
    <glyph glyph-name="acute" unicode="&#xb4;" horiz-adv-x="364" 
d="M178 571l-50 21l122 141l63 -30z" />
    <glyph glyph-name="aacute" unicode="&#xe1;" horiz-adv-x="464" 
d="M364 0h-39l-16 59l-13 -11c-44 -37 -91 -55 -140 -55c-94 0 -132 66 -132 174c0 162 59 343 222 343c61 0 103 -21 133 -64l16 54h40zM351 400c-25 24 -58 45 -101 45c-121 0 -156 -146 -156 -267c0 -81 26 -120 75 -120c67 0 141 58 154 147zM302 571l-50 21l122 141
l63 -30z" />
    <glyph glyph-name="eacute" unicode="&#xe9;" horiz-adv-x="440" 
d="M368 87l2 -58c-57 -21 -94 -35 -145 -35c-101 0 -173 55 -173 190c0 146 66 326 228 326c92 0 143 -47 143 -124c0 -85 -72 -155 -244 -155c-17 0 -35 1 -55 3c-3 -17 -4 -32 -4 -46c0 -102 60 -130 121 -130c47 0 78 13 127 29zM135 291c16 -2 33 -3 49 -3
c87 0 174 25 174 93c0 39 -22 64 -87 64c-84 0 -118 -73 -136 -154zM289 571l-50 21l122 141l63 -30z" />
    <glyph glyph-name="iacute" unicode="&#xed;" horiz-adv-x="204" 
d="M52 0l70 500h65l-70 -500h-65zM143 571l-50 21l122 141l63 -30z" />
    <glyph glyph-name="oacute" unicode="&#xf3;" 
d="M274 445c-114 0 -155 -124 -155 -244c0 -98 27 -142 99 -142c115 0 161 111 161 233c0 104 -33 153 -105 153zM212 -6c-112 0 -162 71 -162 205c0 172 83 311 233 311c106 0 165 -70 165 -211c0 -164 -79 -305 -236 -305zM283 571l-50 21l122 141l63 -30z" />
    <glyph glyph-name="uacute" unicode="&#xfa;" horiz-adv-x="499" 
d="M348 127l52 373h68l-70 -500h-39l-15 59c-32 -26 -83 -65 -153 -65c-67 0 -108 43 -108 123c0 12 1 26 3 40l48 343h67l-46 -331c-2 -17 -4 -31 -4 -44c0 -46 17 -67 59 -67c49 0 111 40 138 69zM279 571l-50 21l122 141l63 -30z" />
    <glyph glyph-name="percent" unicode="%" horiz-adv-x="663" 
d="M609 688l-464 -687h-70l464 687h70zM507 286c-68 -6 -84 -113 -84 -164c0 -46 14 -78 49 -78c61 0 85 92 85 162c0 47 -15 80 -50 80zM513 336c76 0 99 -55 99 -122c0 -118 -42 -220 -149 -220c-67 0 -95 48 -95 120c0 100 38 222 145 222zM225 646
c-69 0 -84 -114 -84 -165c0 -46 14 -77 49 -77c68 0 85 112 85 161c0 48 -14 81 -50 81zM231 696c76 0 99 -55 99 -122c0 -107 -37 -220 -149 -220c-67 0 -95 48 -95 120c0 100 38 222 145 222z" />
    <glyph glyph-name="greater" unicode="&#x3e;" horiz-adv-x="475" 
d="M437 270l-384 -224l11 77l311 175l-262 173l11 80l320 -225z" />
    <glyph glyph-name="less" unicode="&#x3c;" horiz-adv-x="475" 
d="M392 45l-321 224l8 57l384 225l-11 -80l-312 -173l263 -175z" />
    <glyph glyph-name="K" unicode="K" horiz-adv-x="516" 
d="M475 0h-85l-130 383l-95 -95l-40 -288h-68l98 700h67l-44 -316l307 316h82l-254 -266z" />
    <glyph glyph-name="X" unicode="X" horiz-adv-x="526" 
d="M483 0h-83l-116 315l-209 -315h-81l260 368l-144 332h86l105 -276l189 276h81l-239 -332z" />
    <glyph glyph-name="dollar" unicode="$" horiz-adv-x="457" 
d="M319 660c53 -6 109 -27 109 -27l-21 -60c3 0 -68 29 -128 29s-102 -41 -102 -109c0 -123 236 -91 236 -249c0 -106 -69 -200 -182 -212l-13 -92h-59s12 89 13 90c-58 4 -102 28 -131 49l28 50s66 -37 137 -37c69 0 139 45 139 129c0 128 -239 93 -239 256
c0 100 68 179 154 183l12 87h59z" />
    <glyph glyph-name="Eacute" unicode="&#xc9;" horiz-adv-x="488" 
d="M396 0h-339l98 700h339l-9 -65h-272l-31 -222h250l-9 -67h-250l-40 -281h272zM245 752l85 124h76l-106 -124h-55z" />
    <glyph glyph-name="Igrave" unicode="&#xcc;" horiz-adv-x="228" 
d="M143 0h-67l98 700h67zM214 753h-55l-70 124h76z" />
    <glyph glyph-name="Iacute" unicode="&#xcd;" horiz-adv-x="229" 
d="M99 0h-67l98 700h67zM115 753l85 124h76l-106 -124h-55z" />
    <glyph glyph-name="Ograve" unicode="&#xd2;" horiz-adv-x="583" 
d="M265 -5c219 0 308 251 308 450c0 153 -62 265 -207 265c-220 0 -306 -249 -306 -449c0 -152 61 -266 205 -266zM358 645c99 0 142 -101 142 -217c0 -134 -61 -367 -225 -367c-99 0 -141 93 -141 213c0 137 57 371 224 371zM353 753h-55l-70 124h76z" />
    <glyph glyph-name="Oacute" unicode="&#xd3;" horiz-adv-x="583" 
d="M265 -5c219 0 308 251 308 450c0 153 -62 265 -207 265c-220 0 -306 -249 -306 -449c0 -152 61 -266 205 -266zM358 645c99 0 142 -101 142 -217c0 -134 -61 -367 -225 -367c-99 0 -141 93 -141 213c0 137 57 371 224 371zM300 753l85 124h76l-106 -124h-55z" />
    <glyph glyph-name="Ugrave" unicode="&#xd9;" horiz-adv-x="598" 
d="M273 -6c140 0 230 88 254 264l62 442h-69l-63 -454c-17 -122 -84 -187 -175 -187c-82 0 -126 50 -126 139c0 10 1 30 4 48l63 454h-68l-62 -442c-3 -24 -5 -47 -5 -68c0 -131 64 -196 185 -196zM381 754h-55l-70 124h76z" />
    <glyph glyph-name="Uacute" unicode="&#xda;" horiz-adv-x="598" 
d="M273 -6c140 0 230 88 254 264l62 442h-69l-63 -454c-17 -122 -84 -187 -175 -187c-82 0 -126 50 -126 139c0 10 1 30 4 48l63 454h-68l-62 -442c-3 -24 -5 -47 -5 -68c0 -131 64 -196 185 -196zM319 753l85 124h76l-106 -124h-55z" />
    <glyph glyph-name="Aacute" unicode="&#xc1;" horiz-adv-x="521" 
d="M484 0h-75l-32 221h-226l-93 -221h-70l304 700h82zM370 286l-48 338l-145 -338h193zM280 752l85 124h76l-106 -124h-55z" />
    <glyph glyph-name="Agrave" unicode="&#xc0;" horiz-adv-x="521" 
d="M484 0h-75l-32 221h-226l-93 -221h-70l304 700h82zM370 286l-48 338l-145 -338h193zM332 753h-55l-70 124h76z" />
    <glyph glyph-name="yacute" unicode="&#xfd;" horiz-adv-x="400" 
d="M151 -10l-81 510h77l55 -420l174 420h75l-225 -500c-59 -131 -111 -192 -191 -236l-19 52c45 26 107 84 135 174zM256 571l-50 21l122 141l63 -30z" />
    <glyph glyph-name="Yacute" unicode="&#xdd;" horiz-adv-x="496" 
d="M552 700l-261 -385l-44 -315h-68l44 315l-145 385h75l114 -324l212 324h73zM279 752l85 124h76l-106 -124h-55z" />
    <glyph glyph-name="backslash" unicode="\" horiz-adv-x="436" 
d="M283 -145l-159 945h71l160 -945h-72z" />
    <glyph glyph-name="asciicircum" unicode="^" horiz-adv-x="575" 
d="M372 667l147 -392h-70l-112 319l-201 -319h-72l258 392h50z" />
    <glyph glyph-name="bar" unicode="|" horiz-adv-x="261" 
d="M114 -203h-67l141 1003h67z" />
    <glyph glyph-name="ampersand" unicode="&#x26;" horiz-adv-x="680" 
d="M500 361h65c-26 -130 -48 -168 -74 -214l109 -146h-90l-62 89c-46 -53 -131 -97 -210 -97c-127 0 -191 65 -191 163c0 112 62 170 170 218c-53 57 -86 101 -86 149c0 118 89 187 203 187c94 0 147 -54 147 -133c0 -95 -54 -151 -162 -212l129 -164c24 41 43 102 52 160z
M413 138l-156 196c-78 -37 -138 -89 -138 -168c0 -65 47 -108 128 -108c66 0 136 42 166 80zM321 645c-57 0 -115 -39 -115 -105c0 -46 37 -83 75 -131c56 30 130 81 130 161c0 52 -42 75 -90 75z" />
    <glyph glyph-name="circumflex" unicode="&#x2c6;" horiz-adv-x="441" 
d="M262 820h43l108 -100l-21 -29l-117 75l-138 -75l-13 29z" />
    <glyph glyph-name="dieresis" unicode="&#xa8;" horiz-adv-x="461" 
d="M156 709l14 106h64l-14 -106h-64zM318 709l14 106h63l-14 -106h-63z" />
    <glyph glyph-name="tilde" unicode="&#x2dc;" horiz-adv-x="464" 
d="M443 760l-1 -7s-56 -70 -92 -70s-101 55 -127 55c-27 0 -58 -38 -58 -38l-25 33s56 70 92 70s100 -55 127 -55c26 0 58 38 58 38z" />
    <glyph glyph-name="Atilde" unicode="&#xc3;" horiz-adv-x="521" 
d="M459 827c0 0 -56 -70 -92 -70s-102 55 -128 55c-27 0 -58 -38 -58 -38l-25 26s56 70 92 70s100 -55 127 -55c26 0 57 38 57 38zM427 0h-75l-32 221h-226l-93 -221h-70l304 700h82zM313 286l-48 338l-145 -338h193z" />
    <glyph glyph-name="Ntilde" unicode="&#xd1;" horiz-adv-x="611" 
d="M501 827c0 0 -56 -70 -92 -70s-102 55 -128 55c-27 0 -58 -38 -58 -38l-25 26s56 70 92 70s100 -55 127 -55c26 0 57 38 57 38zM447 -1h-74l-224 561l-79 -560h-70l98 700h70l229 -582l81 582h67z" />
    <glyph glyph-name="ntilde" unicode="&#xf1;" horiz-adv-x="499" 
d="M131 0l55 397c26 24 69 49 116 49c51 0 77 -31 77 -87c0 -10 -1 -22 -3 -34l-45 -325h67l48 347c2 12 3 24 3 35c0 85 -53 128 -124 128c-70 0 -111 -33 -144 -59l-4 49h-43l-70 -500h67zM468 656l-1 -7s-56 -70 -92 -70s-101 55 -127 55c-27 0 -58 -38 -58 -38l-25 33
s56 70 92 70s100 -55 127 -55c26 0 58 38 58 38z" />
    <glyph glyph-name="Adieresis" unicode="&#xc4;" horiz-adv-x="521" 
d="M484 0h-75l-32 221h-226l-93 -221h-70l304 700h82zM370 286l-48 338l-145 -338h193zM200 755l14 106h64l-14 -106h-64zM362 755l14 106h63l-14 -106h-63z" />
    <glyph glyph-name="Edieresis" unicode="&#xcb;" horiz-adv-x="488" 
d="M396 0h-339l98 700h339l-9 -65h-272l-31 -222h250l-9 -67h-250l-40 -281h272zM187 755l14 106h64l-14 -106h-64zM349 755l14 106h63l-14 -106h-63z" />
    <glyph glyph-name="Udieresis" unicode="&#xdc;" horiz-adv-x="598" 
d="M273 -6c-121 0 -185 65 -185 196c0 21 2 44 5 68l62 442h68l-63 -454c-3 -18 -4 -38 -4 -48c0 -89 44 -139 126 -139c91 0 158 65 175 187l63 454h69l-62 -442c-24 -176 -114 -264 -254 -264zM238 754l14 106h64l-14 -106h-64zM400 754l14 106h63l-14 -106h-63z" />
    <glyph glyph-name="Odieresis" unicode="&#xd6;" horiz-adv-x="583" 
d="M265 -5c219 0 308 251 308 450c0 153 -62 265 -207 265c-220 0 -306 -249 -306 -449c0 -152 61 -266 205 -266zM358 645c99 0 142 -101 142 -217c0 -134 -61 -367 -225 -367c-99 0 -141 93 -141 213c0 137 57 371 224 371zM230 754l14 106h64l-14 -106h-64zM392 754
l14 106h63l-14 -106h-63z" />
    <glyph glyph-name="Otilde" unicode="&#xd5;" horiz-adv-x="583" 
d="M478 824c0 0 -55 -70 -91 -70s-102 55 -128 55c-27 0 -58 -38 -58 -38l-25 26s55 70 91 70s101 -55 128 -55c26 0 57 38 57 38zM209 -5c219 0 308 251 308 450c0 153 -62 265 -207 265c-220 0 -306 -249 -306 -449c0 -152 61 -266 205 -266zM302 645
c99 0 142 -101 142 -217c0 -134 -61 -367 -225 -367c-99 0 -141 93 -141 213c0 137 57 371 224 371z" />
    <glyph glyph-name="Idieresis" unicode="&#xcf;" horiz-adv-x="203" 
d="M109 0h-67l98 700h67zM41 755l14 106h64l-14 -106h-64zM203 755l14 106h63l-14 -106h-63z" />
    <glyph glyph-name="udieresis" unicode="&#xfc;" horiz-adv-x="499" 
d="M400 500l-52 -373c-27 -29 -89 -69 -138 -69c-42 0 -59 21 -59 67c0 13 2 27 4 44l46 331h-67l-48 -343c-2 -14 -3 -28 -3 -40c0 -80 41 -123 108 -123c70 0 121 39 153 65l15 -59h39l70 500h-68zM165 594l14 106h64l-14 -106h-64zM327 594l14 106h63l-14 -106h-63z" />
    <glyph glyph-name="odieresis" unicode="&#xf6;" 
d="M274 445c-114 0 -155 -124 -155 -244c0 -98 27 -142 99 -142c115 0 161 111 161 233c0 104 -33 153 -105 153zM212 -6c-112 0 -162 71 -162 205c0 172 83 311 233 311c106 0 165 -70 165 -211c0 -164 -79 -305 -236 -305zM184 594l14 106h64l-14 -106h-64zM346 594
l14 106h63l-14 -106h-63z" />
    <glyph glyph-name="idieresis" unicode="&#xef;" horiz-adv-x="206" 
d="M52 0l70 500h67l-70 -500h-67zM4 594l14 106h64l-14 -106h-64zM166 594l14 106h63l-14 -106h-63z" />
    <glyph glyph-name="eth" unicode="&#xf0;" horiz-adv-x="516" 
d="M301 443c-113 0 -152 -123 -152 -255c0 -84 30 -129 99 -129c107 0 160 117 160 257c0 85 -33 127 -107 127zM413 701l-110 -58s104 -128 146 -194c20 -31 30 -72 30 -122c0 -174 -78 -333 -239 -333c-107 0 -161 73 -161 192c0 169 48 324 243 325l-73 98l-107 -61
l-29 40l110 63c-22 23 -50 54 -71 72l52 35l71 -77l109 58z" />
    <glyph glyph-name="otilde" unicode="&#xf5;" 
d="M274 445c72 0 105 -49 105 -153c0 -122 -46 -233 -161 -233c-72 0 -99 44 -99 142c0 120 41 244 155 244zM212 -6c157 0 236 141 236 305c0 141 -59 211 -165 211c-150 0 -233 -139 -233 -311c0 -134 50 -205 162 -205zM453 657l-1 -7s-56 -70 -92 -70s-101 55 -127 55
c-27 0 -58 -38 -58 -38l-25 33s56 70 92 70s100 -55 127 -55c26 0 58 38 58 38z" />
    <glyph glyph-name="edieresis" unicode="&#xeb;" horiz-adv-x="440" 
d="M368 87l2 -58c-57 -21 -94 -35 -145 -35c-101 0 -173 55 -173 190c0 146 66 326 228 326c92 0 143 -47 143 -124c0 -85 -72 -155 -244 -155c-17 0 -35 1 -55 3c-3 -17 -4 -32 -4 -46c0 -102 60 -130 121 -130c47 0 78 13 127 29zM135 291c16 -2 33 -3 49 -3
c87 0 174 25 174 93c0 39 -22 64 -87 64c-84 0 -118 -73 -136 -154zM170 595l14 106h64l-14 -106h-64zM332 595l14 106h63l-14 -106h-63z" />
    <glyph glyph-name="ecircumflex" unicode="&#xea;" horiz-adv-x="440" 
d="M368 87l2 -58c-57 -21 -94 -35 -145 -35c-101 0 -173 55 -173 190c0 146 66 326 228 326c92 0 143 -47 143 -124c0 -85 -72 -155 -244 -155c-17 0 -35 1 -55 3c-3 -17 -4 -32 -4 -46c0 -102 60 -130 121 -130c47 0 78 13 127 29zM135 291c16 -2 33 -3 49 -3
c87 0 174 25 174 93c0 39 -22 64 -87 64c-84 0 -118 -73 -136 -154zM280 712h43l108 -100l-21 -29l-117 75l-138 -75l-13 29z" />
    <glyph glyph-name="icircumflex" unicode="&#xee;" horiz-adv-x="206" 
d="M52 0l70 500h67l-70 -500h-67zM113 712h43l108 -100l-21 -29l-117 75l-138 -75l-13 29z" />
    <glyph glyph-name="ocircumflex" unicode="&#xf4;" 
d="M274 445c-114 0 -155 -124 -155 -244c0 -98 27 -142 99 -142c115 0 161 111 161 233c0 104 -33 153 -105 153zM212 -6c-112 0 -162 71 -162 205c0 172 83 311 233 311c106 0 165 -70 165 -211c0 -164 -79 -305 -236 -305zM292 712h43l108 -100l-21 -29l-117 75l-138 -75
l-13 29z" />
    <glyph glyph-name="ucircumflex" unicode="&#xfb;" horiz-adv-x="499" 
d="M348 127l52 373h68l-70 -500h-39l-15 59c-32 -26 -83 -65 -153 -65c-67 0 -108 43 -108 123c0 12 1 26 3 40l48 343h67l-46 -331c-2 -17 -4 -31 -4 -44c0 -46 17 -67 59 -67c49 0 111 40 138 69zM274 712h43l108 -100l-21 -29l-117 75l-138 -75l-13 29z" />
    <glyph glyph-name="acircumflex" unicode="&#xe2;" horiz-adv-x="464" 
d="M364 0h-39l-16 59l-13 -11c-44 -37 -91 -55 -140 -55c-94 0 -132 66 -132 174c0 162 59 343 222 343c61 0 103 -21 133 -64l16 54h40zM351 400c-25 24 -58 45 -101 45c-121 0 -156 -146 -156 -267c0 -81 26 -120 75 -120c67 0 141 58 154 147zM272 712h43l108 -100
l-21 -29l-117 75l-138 -75l-13 29z" />
    <glyph glyph-name="atilde" unicode="&#xe3;" horiz-adv-x="464" 
d="M364 0h-39l-16 59l-13 -11c-44 -37 -91 -55 -140 -55c-94 0 -132 66 -132 174c0 162 59 343 222 343c61 0 103 -21 133 -64l16 54h40zM351 400c-25 24 -58 45 -101 45c-121 0 -156 -146 -156 -267c0 -81 26 -120 75 -120c67 0 141 58 154 147zM433 657l-1 -7
s-56 -70 -92 -70s-101 55 -127 55c-27 0 -58 -38 -58 -38l-25 33s56 70 92 70s100 -55 127 -55c26 0 58 38 58 38z" />
    <glyph glyph-name="adieresis" unicode="&#xe4;" horiz-adv-x="464" 
d="M364 0h-39l-16 59l-13 -11c-44 -37 -91 -55 -140 -55c-94 0 -132 66 -132 174c0 162 59 343 222 343c61 0 103 -21 133 -64l16 54h40zM351 400c-25 24 -58 45 -101 45c-121 0 -156 -146 -156 -267c0 -81 26 -120 75 -120c67 0 141 58 154 147zM164 594l14 106h64
l-14 -106h-64zM326 594l14 106h63l-14 -106h-63z" />
    <glyph glyph-name="exclamdown" unicode="&#xa1;" horiz-adv-x="240" 
d="M125 404h67l-72 -511h-67zM153 594h67l-13 -93h-67z" />
    <glyph glyph-name="Icircumflex" unicode="&#xce;" horiz-adv-x="281" 
d="M151 0h-67l98 700h67zM194 883h43l108 -100l-21 -29l-117 75l-138 -75l-13 29z" />
    <glyph glyph-name="Ocircumflex" unicode="&#xd4;" horiz-adv-x="583" 
d="M265 -5c-144 0 -205 114 -205 266c0 200 86 449 306 449c145 0 207 -112 207 -265c0 -199 -89 -450 -308 -450zM358 645c-167 0 -224 -234 -224 -371c0 -120 42 -213 141 -213c164 0 225 233 225 367c0 116 -43 217 -142 217zM340 883h43l108 -100l-21 -29l-117 75
l-138 -75l-13 29z" />
    <glyph glyph-name="Ecircumflex" unicode="&#xca;" horiz-adv-x="489" 
d="M396 0h-339l98 700h339l-9 -65h-272l-31 -222h250l-9 -67h-250l-40 -281h272zM283 880h43l108 -100l-21 -29l-117 75l-138 -75l-13 29z" />
    <glyph glyph-name="Ucircumflex" unicode="&#xdb;" horiz-adv-x="598" 
d="M273 -6c-121 0 -185 65 -185 196c0 21 2 44 5 68l62 442h68l-63 -454c-3 -18 -4 -38 -4 -48c0 -89 44 -139 126 -139c91 0 158 65 175 187l63 454h69l-62 -442c-24 -176 -114 -264 -254 -264zM348 883h43l108 -100l-21 -29l-117 75l-138 -75l-13 29z" />
    <glyph glyph-name="question" unicode="?" horiz-adv-x="417" 
d="M418 582c0 -161 -174 -189 -194 -325l-9 -63h-66l8 58c24 168 187 182 187 318c0 44 -26 74 -88 74c-31 0 -76 -6 -112 -19l-2 58c45 16 94 27 134 27c91 0 142 -48 142 -128zM187 0h-67l13 98h67z" />
    <glyph glyph-name="questiondown" unicode="&#xbf;" horiz-adv-x="417" 
d="M41 26c0 161 174 189 194 325l9 63h66l-8 -58c-24 -168 -187 -182 -187 -318c0 -44 26 -74 88 -74c31 0 76 6 112 19l2 -58c-45 -16 -94 -27 -134 -27c-91 0 -142 48 -142 128zM272 608h67l-13 -98h-67z" />
    <glyph glyph-name="ellipsis" unicode="&#x2026;" horiz-adv-x="665" 
d="M113 0h-67l15 106h67zM357 0h-67l15 106h67zM601 0h-67l15 106h67z" />
    <glyph glyph-name="quotedblbase" unicode="&#x201e;" horiz-adv-x="419" 
d="M381 96l-139 -255l-45 16l117 263zM200 98l-137 -257l-45 16l116 265z" />
    <glyph glyph-name="quotesinglbase" unicode="&#x201a;" horiz-adv-x="241" 
d="M204 98l-139 -260l-48 17l117 267z" />
    <glyph glyph-name="guillemotleft" unicode="&#xab;" horiz-adv-x="460" 
d="M386 108l-48 -19l-89 208l149 209l41 -18l-119 -189zM216 97l-48 -19l-94 219l157 221l42 -19l-126 -200z" />
    <glyph glyph-name="guillemotright" unicode="&#xbb;" horiz-adv-x="460" 
d="M115 488l48 19l89 -208l-149 -209l-41 18l118 189zM285 499l48 19l94 -219l-157 -221l-42 19l126 200z" />
    <glyph glyph-name="logicalnot" unicode="&#xac;" 
d="M422 125h-68l20 144h-319l9 65h387z" />
    <glyph glyph-name="quotedblleft" unicode="&#x201c;" horiz-adv-x="419" 
d="M78 512l139 255l46 -16l-118 -263zM260 510l136 257l46 -16l-116 -265z" />
    <glyph glyph-name="quotedblright" unicode="&#x201d;" horiz-adv-x="419" 
d="M427 741l-139 -255l-46 16l117 263zM245 743l-136 -257l-46 16l116 265z" />
    <glyph glyph-name="quoteleft" unicode="&#x2018;" horiz-adv-x="241" 
d="M78 510l140 259l47 -17l-116 -267z" />
    <glyph glyph-name="quoteright" unicode="&#x2019;" horiz-adv-x="240" 
d="M249 745l-138 -260l-49 17l118 267z" />
    <glyph glyph-name="periodcentered" unicode="&#xb7;" horiz-adv-x="163" 
d="M128 247h-67l15 103h67z" />
    <glyph glyph-name="Ydieresis" unicode="&#x178;" horiz-adv-x="497" 
d="M558 700l-261 -385l-44 -315h-68l44 315l-145 385h75l114 -324l212 324h73zM196 816l14 106h64l-14 -106h-64zM358 816l14 106h63l-14 -106h-63z" />
    <glyph glyph-name="Egrave" unicode="&#xc8;" horiz-adv-x="488" 
d="M396 0h-339l98 700h339l-9 -65h-272l-31 -222h250l-9 -67h-250l-40 -281h272zM347 753h-55l-70 124h76z" />
    <glyph glyph-name="bullet" unicode="&#x2022;" horiz-adv-x="423" 
d="M106 245c0 69 56 149 135 149c58 0 99 -47 99 -109c0 -69 -55 -149 -135 -149c-58 0 -99 47 -99 109z" />
    <glyph glyph-name="twosuperior" unicode="&#xb2;" horiz-adv-x="392" 
d="M323 370l-15 -47h-207l5 32c41 39 167 145 167 220c0 33 -22 44 -45 44c-37 0 -74 -11 -74 -11l10 40s46 14 88 14c53 0 79 -26 79 -66c0 -88 -82 -160 -156 -226h148z" />
    <glyph glyph-name="braceleft" unicode="{" horiz-adv-x="320" 
d="M44 278l7 46c68 0 90 45 102 127l21 150c20 146 91 200 191 200h19l-9 -64h-18c-76 0 -102 -40 -117 -146l-21 -153c-13 -90 -26 -116 -88 -134c40 -10 55 -35 55 -81c0 -15 -1 -32 -4 -51l-22 -151c-4 -28 -6 -51 -6 -70c0 -70 26 -88 83 -88h15l-9 -64h-21
c-83 0 -137 36 -137 140c0 17 1 35 4 56l21 150c2 15 3 31 3 44c0 57 -21 89 -69 89z" />
    <glyph glyph-name="braceright" unicode="}" horiz-adv-x="320" 
d="M118 801h19c86 0 140 -40 140 -145c0 -17 -2 -35 -5 -55l-21 -150c-3 -19 -4 -36 -4 -51c0 -50 18 -76 70 -76l-7 -46c-59 0 -90 -48 -102 -133l-21 -150c-21 -148 -92 -196 -189 -196h-20l9 64h14c72 0 103 30 121 158l22 151c11 80 30 119 86 132c-40 13 -55 30 -55 73
c0 16 2 36 6 61l21 153c3 24 5 45 5 63c0 60 -21 83 -80 83h-18z" />
    <glyph glyph-name="Eth" unicode="&#xd0;" horiz-adv-x="626" 
d="M595 434c0 -209 -142 -434 -381 -434h-132l44 317h-75l10 65h74l45 318h160c161 0 255 -109 255 -266zM231 65c177 0 286 199 286 366c0 134 -85 204 -183 204h-90l-36 -253h159l-10 -65h-158l-35 -252h67z" />
    <glyph glyph-name="registered" unicode="&#xae;" horiz-adv-x="496" 
d="M244 426h-11l-17 -121h-36l39 279h77c46 0 68 -21 68 -58c0 -35 -27 -75 -62 -79c22 -7 27 -13 36 -48l25 -94h-42l-22 79c-10 34 -22 42 -55 42zM292 550h-42l-11 -77h37c31 0 50 20 50 48c0 23 -14 29 -34 29zM242 162c-105 0 -158 75 -158 198c0 189 78 350 232 350
c105 0 158 -75 158 -198c0 -189 -78 -350 -232 -350zM248 212c120 0 172 147 172 285c0 107 -30 163 -110 163c-120 0 -172 -147 -172 -285c0 -107 30 -163 110 -163z" />
    <glyph glyph-name="copyright" unicode="&#xa9;" horiz-adv-x="498" 
d="M320 162l3 -41c-27 -8 -47 -12 -73 -12c-62 0 -91 42 -91 109c0 109 48 178 134 178c31 0 50 -9 66 -13l-20 -40c-1 0 -3 1 -4 1c-15 4 -26 8 -42 8c-63 0 -87 -51 -87 -128c0 -47 19 -72 58 -72c23 0 35 2 56 10zM229 -19c-105 0 -158 75 -158 198c0 189 78 350 232 350
c105 0 158 -75 158 -198c0 -189 -78 -350 -232 -350zM235 31c120 0 172 147 172 285c0 107 -30 163 -110 163c-120 0 -172 -147 -172 -285c0 -107 30 -163 110 -163z" />
    <glyph glyph-name="paragraph" unicode="&#xb6;" horiz-adv-x="539" 
d="M563 710l-9 -60h-63l-120 -853h-59l120 853h-82l-120 -853h-58l79 561c-86 0 -134 63 -134 144c0 110 74 208 207 208h239z" />
    <glyph glyph-name="AE" unicode="&#xc6;" horiz-adv-x="766" 
d="M675 0h-358l31 221h-162l-128 -221h-70l392 700h393l-9 -65h-290l-31 -222h267l-9 -67h-267l-40 -281h290zM222 286h135l49 348z" />
    <glyph glyph-name="Scaron" unicode="&#x160;" horiz-adv-x="496" 
d="M313 773h-43l-108 100l21 29l117 -75l138 75l13 -29zM411 675l-24 -67c2 0 -78 32 -139 32c-79 0 -122 -55 -122 -119c0 -160 266 -83 266 -294c0 -127 -97 -233 -240 -233c-75 0 -143 29 -178 55l30 57s78 -42 153 -42c84 0 161 54 161 142c0 162 -265 93 -265 302
c0 111 75 202 204 202c50 0 105 -14 154 -35z" />
    <glyph glyph-name="scaron" unicode="&#x161;" horiz-adv-x="401" 
d="M245 589h-43l-108 100l22 29l116 -75l139 75l12 -29zM-10 33l24 56s55 -30 112 -30c65 0 116 38 116 104c0 101 -197 68 -197 195c0 94 65 152 160 152c54 0 119 -22 116 -24l-21 -64c1 0 -51 23 -102 23c-54 0 -83 -25 -83 -76c0 -78 196 -59 196 -200
c0 -105 -77 -175 -190 -175c-52 0 -105 21 -131 39z" />
    <glyph glyph-name="ae" unicode="&#xe6;" horiz-adv-x="711" 
d="M339 85l2 14c-56 -76 -123 -106 -184 -106c-94 0 -132 66 -132 174c0 162 59 343 222 343c61 0 105 -15 135 -44l14 34h40l-4 -30c31 25 70 40 117 40c92 0 143 -47 143 -124c0 -85 -72 -155 -244 -155c-17 0 -35 1 -55 3c-3 -17 -4 -32 -4 -46c0 -102 60 -130 121 -130
c47 0 78 13 127 29l2 -58c-57 -21 -94 -35 -145 -35c-71 0 -128 27 -155 91zM354 420c-25 14 -60 25 -103 25c-121 0 -156 -146 -156 -267c0 -81 26 -120 75 -120c67 0 141 58 154 147zM404 291c16 -2 33 -3 49 -3c87 0 174 25 174 93c0 39 -22 64 -87 64
c-84 0 -118 -73 -136 -154z" />
    <glyph glyph-name="onehalf" unicode="&#xbd;" horiz-adv-x="734" 
d="M660 688l-465 -688h-65l464 688h66zM99 316l6 48h62l34 236l-81 -50l-11 49l101 63h45l-42 -298h63l-6 -48h-171zM667 47l-15 -47h-207l5 32c41 39 167 145 167 220c0 33 -22 44 -45 44c-37 0 -74 -11 -74 -11l10 40s46 14 88 14c53 0 79 -26 79 -66
c0 -88 -82 -160 -156 -226h148z" />
    <glyph glyph-name="Acircumflex" unicode="&#xc2;" horiz-adv-x="521" 
d="M484 0h-75l-32 221h-226l-93 -221h-70l304 700h82zM370 286l-48 338l-145 -338h193zM310 880h43l108 -100l-21 -29l-117 75l-138 -75l-13 29z" />
    <glyph glyph-name="underscore" unicode="_" horiz-adv-x="387" 
d="M368 -236h-386l9 65h386z" />
    <glyph glyph-name="endash" unicode="&#x2013;" horiz-adv-x="450" 
d="M465 257h-450l9 65h450z" />
    <glyph glyph-name="emdash" unicode="&#x2014;" horiz-adv-x="720" 
d="M735 257h-720l9 65h720z" />
    <glyph glyph-name="Thorn" unicode="&#xde;" horiz-adv-x="491" 
d="M220 700l-15 -110h103c115 0 177 -61 177 -148c0 -166 -87 -258 -245 -258h-92l-26 -184h-67l98 700h67zM278 526h-82l-39 -278h60c126 0 194 46 194 173c0 72 -31 105 -133 105z" />
    <glyph glyph-name="degree" unicode="&#xb0;" horiz-adv-x="407" 
d="M222 444c-77 0 -129 59 -129 139c0 111 77 193 176 193c77 0 129 -59 129 -139c0 -111 -77 -193 -176 -193zM260 722c-66 0 -112 -65 -112 -129c0 -58 30 -95 83 -95c66 0 112 65 112 129c0 58 -30 95 -83 95z" />
    <glyph glyph-name="multiply" unicode="&#xd7;" horiz-adv-x="548" 
d="M549 498l-210 -202l151 -201l-55 -53l-152 201l-201 -193l-35 46l202 193l-151 200l55 53l151 -200l210 202z" />
    <glyph glyph-name="brokenbar" unicode="&#xa6;" horiz-adv-x="283" 
d="M203 413h-59l55 393h59zM118 -194h-59l55 395h59z" />
    <glyph glyph-name="oe" unicode="&#x153;" horiz-adv-x="766" 
d="M694 87l2 -58c-57 -21 -94 -35 -145 -35c-73 0 -131 29 -157 95c-40 -58 -100 -95 -180 -95c-112 0 -162 71 -162 205c0 172 83 311 233 311c74 0 125 -34 149 -103c37 60 93 103 172 103c92 0 143 -47 143 -124c0 -85 -72 -155 -244 -155c-17 0 -35 1 -55 3
c-3 -17 -4 -32 -4 -46c0 -102 60 -130 121 -130c47 0 78 13 127 29zM276 445c-114 0 -155 -124 -155 -244c0 -98 27 -142 99 -142c115 0 161 111 161 233c0 104 -33 153 -105 153zM461 291c16 -2 33 -3 49 -3c87 0 174 25 174 93c0 39 -22 64 -87 64
c-84 0 -118 -73 -136 -154z" />
    <glyph glyph-name="Oslash" unicode="&#xd8;" horiz-adv-x="584" 
d="M265 -5c-27 0 -51 4 -73 11l-52 -115h-61l64 142c-57 46 -83 129 -83 228c0 200 86 449 306 449c29 0 55 -5 77 -13l47 103h62l-60 -132c56 -46 81 -126 81 -223c0 -199 -89 -450 -308 -450zM358 645c-167 0 -224 -234 -224 -371c0 -68 13 -128 43 -166l237 524
c-16 8 -35 13 -56 13zM500 428c0 64 -14 124 -42 164l-236 -521c15 -7 33 -10 53 -10c164 0 225 233 225 367z" />
    <glyph glyph-name="yen" unicode="&#xa5;" horiz-adv-x="549" 
d="M314 236l-12 -87h167l-9 -65h-167l-12 -84h-68l12 84h-151l9 65h151l12 87h-151l9 65h151l-143 399h75l113 -334l213 334h73l-263 -399s168 0 167 0l-9 -65h-167z" />
    <glyph glyph-name="plusminus" unicode="&#xb1;" horiz-adv-x="453" 
d="M440 357h-155l-27 -193h-68l27 193h-147l9 65h147l28 200h68l-28 -200h155zM390 0h-370l9 65h370z" />
    <glyph glyph-name="mu" unicode="&#xb5;" horiz-adv-x="502" 
d="M143 500h69l-46 -331c-2 -17 -4 -31 -4 -44c0 -46 17 -67 59 -67c49 0 111 40 138 69l52 373h68l-70 -500h-39l-15 59c-47 -34 -91 -65 -142 -65c-40 0 -71 16 -71 16l-35 -246h-67z" />
    <glyph glyph-name="mu" unicode="&#x3bc;" horiz-adv-x="502" 
d="M143 500h69l-46 -331c-2 -17 -4 -31 -4 -44c0 -46 17 -67 59 -67c49 0 111 40 138 69l52 373h68l-70 -500h-39l-15 59c-47 -34 -91 -65 -142 -65c-40 0 -71 16 -71 16l-35 -246h-67z" />
    <glyph glyph-name="daggerdbl" unicode="&#x2021;" horiz-adv-x="468" 
d="M257 183l-26 -183h-58l26 183h-160l9 65h160l37 262h-160l9 65h160l25 175h58l-25 -175h169l-9 -65h-169l-37 -262h169l-9 -65h-169z" />
    <glyph glyph-name="trademark" unicode="&#x2122;" horiz-adv-x="617" 
d="M585 418h-49l27 194l-97 -117h-9l-57 117l-27 -194h-48l40 282h51l60 -130l100 130h49zM135 418l32 230h-71l8 52h194l-8 -52h-73l-32 -230h-50z" />
    <glyph glyph-name="Zcaron" unicode="&#x17d;" horiz-adv-x="457" 
d="M319 773h-42l-108 100l21 29l116 -75l139 75l13 -29zM406 0h-395l9 62l368 573h-289l9 65h368l-8 -57l-366 -577h313z" />
    <glyph glyph-name="zcaron" unicode="&#x17e;" horiz-adv-x="371" 
d="M268 589h-42l-109 100l21 29l117 -75l138 75l13 -29zM96 500h276l-8 -60l-249 -375h207l-9 -65h-287l8 60l249 375h-196z" />
    <glyph glyph-name="divide" unicode="&#xf7;" horiz-adv-x="472" 
d="M257 0h-68l15 106h68zM312 394h-68l15 106h68zM444 228h-388l9 65h388z" />
    <glyph glyph-name="OE" unicode="&#x152;" horiz-adv-x="786" 
d="M693 0h-428c-145 0 -206 111 -206 262c0 217 92 438 304 438h428l-9 -65h-271l-31 -222h249l-9 -67h-249l-40 -281h271zM370 64l80 571h-94c-156 0 -223 -204 -223 -360c0 -119 43 -211 142 -211h95z" />
    <glyph glyph-name="section" unicode="&#xa7;" horiz-adv-x="544" 
d="M262 436c-67 -47 -103 -84 -103 -135c0 -75 113 -93 179 -146c47 32 84 56 84 125c0 80 -94 104 -160 156zM79 -114l26 65c35 -26 82 -43 122 -43c81 0 127 43 127 108c0 127 -264 112 -264 274c0 76 53 130 132 187c-13 18 -22 40 -22 67c0 111 72 166 180 166
c64 0 114 -27 114 -27l-19 -62s-49 24 -106 24c-42 0 -100 -26 -100 -96c0 -98 222 -116 222 -262c0 -75 -33 -115 -109 -170c25 -24 41 -56 41 -95c0 -100 -83 -179 -213 -179c-48 0 -103 23 -131 43z" />
    <glyph glyph-name="Ccedilla" unicode="&#xc7;" horiz-adv-x="526" 
d="M240 -182l-40 31c38 65 47 83 56 147c-129 12 -194 112 -194 266c0 247 125 447 333 447c56 0 90 -8 138 -29l-24 -62c-42 21 -96 26 -127 26c-183 0 -244 -224 -244 -366c0 -135 52 -219 154 -219c56 0 115 18 160 44l10 -57c-28 -17 -77 -43 -141 -50
c-9 -65 -24 -93 -81 -178z" />
    <glyph glyph-name="ccedilla" unicode="&#xe7;" horiz-adv-x="390" 
d="M340 78l4 -59c-37 -12 -70 -20 -103 -23c-9 -64 -24 -94 -81 -178l-40 31c39 64 52 85 61 149c-88 13 -128 82 -128 189c0 159 59 323 239 323c53 0 88 -15 115 -24l-35 -58c-26 9 -57 16 -87 16c-126 0 -157 -144 -157 -253c0 -85 31 -131 102 -131c38 0 70 6 110 18z
" />
    <glyph glyph-name="guilsinglleft" unicode="&#x2039;" horiz-adv-x="297" 
d="M220 105l-53 -23l-94 214l156 216l45 -23l-123 -191z" />
    <glyph glyph-name="guilsinglright" unicode="&#x203a;" horiz-adv-x="297" 
d="M118 489l54 23l94 -214l-156 -216l-46 23l124 191z" />
    <glyph glyph-name="dagger" unicode="&#x2020;" horiz-adv-x="452" 
d="M230 0h-68l70 499h-150l9 65h150l27 186h68l-27 -186h156l-9 -65h-156z" />
    <glyph glyph-name="asciitilde" unicode="~" horiz-adv-x="475" 
d="M431 337l18 -29c-30 -53 -73 -82 -117 -82c-80 0 -96 59 -163 59c-26 0 -57 -19 -85 -45l-15 47c27 35 70 64 114 64c80 0 95 -60 162 -60c26 0 58 20 86 46z" />
    <glyph glyph-name="sterling" unicode="&#xa3;" horiz-adv-x="486" 
d="M214 415h152l-9 -65h-152l-39 -285h245l-9 -65h-312l49 350h-61l9 65h61l24 180c12 89 80 115 137 115c25 0 43 -6 64 -14l-17 -54c-19 4 -29 6 -43 6c-38 0 -70 -25 -77 -75z" />
    <glyph glyph-name="aring" unicode="&#xe5;" horiz-adv-x="464" 
d="M364 0h-39l-16 59l-13 -11c-44 -37 -91 -55 -140 -55c-94 0 -132 66 -132 174c0 162 59 343 222 343c61 0 103 -21 133 -64l16 54h40zM351 400c-25 24 -58 45 -101 45c-121 0 -156 -146 -156 -267c0 -81 26 -120 75 -120c67 0 141 58 154 147zM288 772
c61 0 88 -34 88 -86c0 -69 -30 -134 -117 -134c-61 0 -88 34 -88 86c0 69 30 134 117 134zM264 596c45 0 61 43 61 86c0 26 -9 46 -42 46c-45 0 -61 -43 -61 -86c0 -26 9 -46 42 -46z" />
    <glyph glyph-name="Aring" unicode="&#xc5;" horiz-adv-x="521" 
d="M484 0h-75l-32 221h-226l-93 -221h-70l304 700h82zM370 286l-48 338l-145 -338h193zM349 972c61 0 88 -34 88 -86c0 -69 -30 -134 -117 -134c-61 0 -88 34 -88 86c0 69 30 134 117 134zM325 796c45 0 61 43 61 86c0 26 -9 46 -42 46c-45 0 -61 -43 -61 -86
c0 -26 9 -46 42 -46z" />
    <glyph glyph-name="perthousand" unicode="&#x2030;" horiz-adv-x="953" 
d="M609 688l-464 -687h-70l464 687h70zM507 286c-68 0 -84 -113 -84 -164c0 -46 14 -78 49 -78c61 0 85 92 85 162c0 47 -15 80 -50 80zM513 336c76 0 99 -55 99 -122c0 -118 -42 -220 -149 -220c-67 0 -95 48 -95 120c0 100 38 222 145 222zM225 646
c-69 0 -84 -114 -84 -165c0 -46 14 -77 49 -77c68 0 85 112 85 161c0 48 -14 81 -50 81zM231 696c76 0 99 -55 99 -122c0 -107 -37 -220 -149 -220c-67 0 -95 48 -95 120c0 100 38 222 145 222zM797 286c-68 0 -84 -113 -84 -164c0 -46 14 -78 49 -78c61 0 85 92 85 162
c0 47 -15 80 -50 80zM803 336c76 0 99 -55 99 -122c0 -118 -42 -220 -149 -220c-67 0 -95 48 -95 120c0 100 38 222 145 222z" />
    <glyph glyph-name="florin" unicode="&#x192;" horiz-adv-x="279" 
d="M-10 382l13 60h70l40 156c23 88 88 114 143 114c25 0 60 -4 81 -12l-21 -54c-17 3 -39 5 -54 5c-35 0 -75 -23 -86 -67l-36 -142h101l-15 -60h-100l-131 -525l-72 -10l135 535h-68z" />
    <glyph glyph-name="cedilla" unicode="&#xb8;" horiz-adv-x="339" 
d="M186 0h64c-10 -66 -23 -92 -81 -177l-40 31c37 65 48 83 57 146z" />
    <glyph glyph-name="ordfeminine" unicode="&#xaa;" horiz-adv-x="327" 
d="M264 234h-215l8 55h215zM283 658l16 22h23l-43 -319h-25l-9 38c-41 -34 -63 -41 -95 -41c-49 0 -77 43 -77 108c0 136 45 219 145 219c23 0 53 -15 65 -27zM248 479l19 140c-14 13 -33 21 -51 21c-74 0 -97 -69 -97 -166c0 -41 16 -69 38 -69c37 0 86 36 91 74z" />
    <glyph glyph-name="ordmasculine" unicode="&#xba;" horiz-adv-x="333" 
d="M271 234h-215l7 54h215zM187 408c55 0 82 102 82 165c0 46 -13 77 -47 77c-55 0 -82 -102 -82 -165c0 -46 13 -77 47 -77zM228 700c67 0 98 -48 98 -120c0 -106 -40 -222 -145 -222c-67 0 -98 48 -98 120c0 106 40 222 145 222z" />
    <glyph glyph-name="onequarter" unicode="&#xbc;" horiz-adv-x="796" 
d="M660 688l-464 -688h-66l464 688h66zM598 0l12 85h-183l6 41l194 301h52l-188 -292h126l16 115h46l-16 -116h61l-7 -49h-61l-12 -85h-46zM99 316l6 48h63l34 236l-81 -50l-11 49l100 63h45l-42 -298h63l-6 -48h-171z" />
    <glyph glyph-name="onesuperior" unicode="&#xb9;" horiz-adv-x="341" 
d="M88 316l6 48h63l33 236l-82 -50l-11 49l102 63h45l-42 -298h63l-6 -48h-171z" />
    <glyph glyph-name="threequarters" unicode="&#xbe;" horiz-adv-x="797" 
d="M597 0l12 85h-182l6 41l193 301h52l-188 -292h126l16 115h47l-16 -116h61l-7 -49h-62l-12 -85h-46zM659 688l-464 -688h-66l465 688h65zM161 505h36c49 0 77 41 77 72c0 25 -18 37 -48 37c-41 0 -77 -23 -77 -23l-2 46s37 25 89 25c56 0 83 -30 83 -79s-27 -88 -74 -105
c42 -7 60 -33 60 -73c0 -68 -54 -118 -128 -118c-53 0 -84 25 -84 25l18 43s24 -18 66 -18c45 0 80 21 80 65c0 39 -29 50 -68 50h-35z" />
    <glyph glyph-name="threesuperior" unicode="&#xb3;" horiz-adv-x="382" 
d="M164 505h36c49 0 77 41 77 72c0 25 -18 37 -48 37c-41 0 -77 -23 -77 -23l-2 46s37 25 89 25c56 0 83 -30 83 -79s-27 -88 -74 -105c42 -7 60 -33 60 -73c0 -68 -54 -118 -128 -118c-53 0 -84 25 -84 25l18 43s24 -18 66 -18c45 0 80 21 80 65c0 39 -29 50 -68 50h-35z
" />
    <glyph glyph-name="oslash" unicode="&#xf8;" 
d="M212 -6c-46 0 -81 11 -107 34l-63 -71l-41 44l69 78c-14 32 -20 72 -20 120c0 172 83 311 233 311c53 0 94 -18 122 -53l78 88l47 -38l-95 -108c9 -28 13 -61 13 -100c0 -164 -79 -305 -236 -305zM274 447c-114 0 -155 -125 -155 -246c0 -25 2 -47 5 -65l235 263
c-17 32 -45 48 -85 48zM379 292c0 17 -1 32 -3 46l-228 -256c16 -17 39 -25 70 -25c115 0 161 112 161 235z" />
    <glyph glyph-name="cent" unicode="&#xa2;" horiz-adv-x="343" 
d="M296 173l2 -63c-39 -12 -67 -18 -106 -18l-13 -92h-59l13 94c-53 20 -77 74 -77 149c0 112 29 236 136 266l13 97h59l-13 -96c42 0 78 -11 101 -19l-27 -60c-23 8 -48 13 -72 13c-95 0 -129 -71 -129 -194c0 -64 23 -92 80 -92c33 0 59 5 92 15z" />
    <glyph glyph-name="at" unicode="@" horiz-adv-x="817" 
d="M486 216l61 193c-9 11 -24 42 -73 42c-103 0 -167 -165 -167 -254c0 -53 26 -62 51 -62c45 0 73 26 128 81zM472 81l2 66c-34 -34 -81 -71 -136 -71c-61 0 -88 45 -88 107c0 129 78 332 228 332c60 0 80 -36 95 -51l20 40h41l-117 -369c149 2 206 170 206 297
c0 130 -65 212 -225 212c-226 0 -357 -203 -357 -482c0 -151 59 -219 192 -219h156l-6 -54c-49 -5 -118 -8 -163 -8c-164 0 -249 85 -249 264c0 279 123 564 437 564c217 0 279 -121 279 -262c0 -217 -108 -368 -279 -368c-12 0 -24 0 -36 2z" />
    <glyph glyph-name="germandbls" unicode="&#xdf;" horiz-adv-x="511" 
d="M57 0l75 532c17 123 77 178 197 178c117 0 168 -69 168 -150c0 -96 -72 -171 -133 -178c65 -10 112 -64 112 -150c0 -158 -115 -238 -226 -238c-23 0 -41 2 -57 5l7 53c131 0 209 61 209 175c0 57 -40 114 -132 116h-26l9 64h25c70 0 145 63 145 142c0 57 -37 96 -99 96
c-105 0 -125 -59 -137 -147l-70 -498h-67z" />
    <glyph glyph-name="Euro" unicode="&#x20ac;" horiz-adv-x="567" 
d="M179 305h218l-10 -65h-212c7 -114 65 -181 160 -181c63 0 123 24 160 39l10 -52c-33 -20 -94 -52 -176 -52c-146 0 -222 99 -227 246h-75l9 65h70c3 31 7 68 14 96h-70l9 65h79c52 150 159 244 303 244c54 0 88 -9 135 -30l-24 -62c-42 21 -96 27 -128 27
c-98 0 -173 -69 -213 -179h210l-11 -66h-217c-7 -29 -13 -63 -14 -95z" />
    <glyph glyph-name="thorn" unicode="&#xfe;" horiz-adv-x="491" 
d="M163 700h68l-36 -250c52 36 96 61 148 61c94 0 132 -66 132 -174c0 -220 -86 -343 -222 -343c-51 0 -94 28 -116 50l-39 -280h-67zM185 379l-38 -272c21 -33 64 -49 100 -49c115 0 158 123 158 259c0 87 -21 129 -76 129c-63 0 -111 -39 -144 -67z" />
    <glyph glyph-name="macron" unicode="&#xaf;" horiz-adv-x="447" 
d="M119 614l10 65h285l-10 -65h-285z" />
    <glyph glyph-name="uni00A0" unicode="&#xa0;" horiz-adv-x="360" 
 />
    <glyph glyph-name="kgreenlandic" unicode="&#x138;" horiz-adv-x="458" 
d="M134 500h67l-30 -212l223 212h85l-218 -203l158 -297h-76l-129 250l-56 -54l-27 -196h-67z" />
    <glyph glyph-name="currency" unicode="&#xa4;" horiz-adv-x="548" 
d="M153 542l40 -54c35 26 77 41 129 41c55 0 98 -17 127 -48l65 63l35 -46l-68 -66c9 -25 15 -55 15 -88c0 -65 -20 -140 -53 -187l47 -62l-55 -53l-46 59c-35 -26 -79 -40 -130 -40c-53 0 -92 15 -120 44l-57 -55l-35 46l62 58c-10 24 -14 52 -14 84c0 64 17 143 47 191
l-44 60zM314 464c-98 0 -153 -103 -153 -208c0 -77 41 -130 107 -130c100 0 161 90 161 203c0 80 -40 135 -115 135z" />
    <glyph glyph-name="uni00AD" unicode="&#xad;" horiz-adv-x="360" 
d="M375 257h-360l9 65h360z" />
  </font>
</defs>
</svg>
