<?xml version="1.0" standalone="no"?>
<!DOCTYPE svg PUBLIC "-//W3C//DTD SVG 1.1//EN" "http://www.w3.org/Graphics/SVG/1.1/DTD/svg11.dtd" >
<svg>
<metadata>
Created by FontForge 20110222 at Thu Jan 19 16:08:55 2012
 By www-data
Copyright (c) 2012, Agustina Mingote (agustinamingote@gmail.com), with Reserved Font Names "Gudea"
</metadata>
<defs>
<font id="Gudea" horiz-adv-x="516" >
  <font-face 
    font-family="Gudea"
    font-weight="400"
    font-stretch="normal"
    units-per-em="1000"
    panose-1="2 0 0 0 0 0 0 0 0 0"
    ascent="800"
    descent="-200"
    x-height="500"
    cap-height="700"
    bbox="-50 -240 1000 972"
    underline-thickness="50"
    underline-position="-50"
    stemh="65"
    stemv="75"
    unicode-range="U+0020-2122"
  />
    <missing-glyph />
    <glyph glyph-name="space" unicode=" " horiz-adv-x="250" 
 />
    <glyph glyph-name="t" unicode="t" horiz-adv-x="346" 
d="M103 108v332h-68v60h69v143h75v-143h122v-60h-123v-318c0 -50 25 -67 68 -67c15 0 27 2 49 6l11 -54c-25 -8 -46 -13 -74 -13c-61 0 -129 25 -129 114z" />
    <glyph glyph-name="o" unicode="o" horiz-adv-x="518" 
d="M255 445c-108 0 -138 -72 -138 -197s43 -189 139 -189c97 0 144 57 144 189c0 128 -53 197 -145 197zM257 -6c-140 0 -215 97 -215 256s70 260 210 260s223 -101 223 -260s-78 -256 -218 -256z" />
    <glyph glyph-name="n" unicode="n" horiz-adv-x="554" 
d="M166 397v-397h-75v500h48l12 -49c33 26 74 59 152 59c88 0 160 -55 160 -163v-347h-75v325c0 77 -33 121 -101 121c-52 0 -97 -25 -121 -49z" />
    <glyph glyph-name="r" unicode="r" horiz-adv-x="371" 
d="M166 382v-382h-75v500h48l12 -59c59 47 96 69 153 69c27 0 43 -6 44 -6l-12 -69c-9 3 -28 6 -49 6c-44 0 -91 -30 -121 -59z" />
    <glyph glyph-name="p" unicode="p" horiz-adv-x="546" 
d="M166 -238h-75v737h44l26 -56c45 34 94 67 159 67c129 0 180 -101 180 -259c0 -203 -103 -258 -198 -258c-66 0 -109 29 -136 48v-279zM166 376v-267c28 -33 79 -52 119 -52c107 0 140 64 140 192c0 133 -49 196 -110 196c-70 0 -117 -41 -149 -69z" />
    <glyph glyph-name="e" unicode="e" horiz-adv-x="489" 
d="M438 234h-319c0 -140 82 -176 160 -176c52 0 79 11 136 29l12 -58c-60 -21 -99 -35 -156 -35c-129 0 -227 73 -227 256c0 163 89 260 208 260s188 -85 188 -215c0 -18 -1 -44 -2 -61zM124 291h244c0 90 -26 154 -116 154c-93 0 -125 -73 -128 -154z" />
    <glyph glyph-name="a" unicode="a" 
d="M307 299h41c0 122 -22 146 -121 146c-60 0 -109 -10 -138 -21l-14 58c63 21 119 28 174 28c118 0 176 -57 176 -176v-334h-44l-26 59c-63 -52 -99 -65 -157 -65c-95 0 -148 62 -148 151c0 96 77 154 257 154zM349 236h-45c-141 0 -179 -28 -179 -85c0 -53 31 -94 79 -94
s86 19 145 74v105z" />
    <glyph glyph-name="v" unicode="v" horiz-adv-x="445" 
d="M434 501l-169 -501h-86l-168 501h85l127 -421l128 421h83z" />
    <glyph glyph-name="E" unicode="E" horiz-adv-x="542" 
d="M468 0h-377v700h377v-65h-302v-222h277v-67h-277v-281h302v-65z" />
    <glyph glyph-name="F" unicode="F" horiz-adv-x="510" 
d="M469 700v-65h-303v-222h279v-67h-279v-346h-75v700h378z" />
    <glyph glyph-name="O" unicode="O" horiz-adv-x="648" 
d="M323 -5c-192 0 -277 164 -277 360c0 198 88 355 277 355c191 0 279 -157 279 -355c0 -196 -88 -360 -279 -360zM325 645c-147 0 -203 -147 -203 -290c0 -156 63 -294 202 -294c143 0 203 141 203 299c0 142 -67 285 -202 285z" />
    <glyph glyph-name="T" unicode="T" horiz-adv-x="504" 
d="M216 0v633h-196v67h464v-67h-194v-633h-74z" />
    <glyph glyph-name="L" unicode="L" horiz-adv-x="473" 
d="M466 0h-375v700h75v-635h300v-65z" />
    <glyph glyph-name="A" unicode="A" horiz-adv-x="579" 
d="M566 0h-84l-70 221h-251l-69 -221h-79l230 700h91zM395 286l-107 338l-108 -338h215z" />
    <glyph glyph-name="N" unicode="N" horiz-adv-x="679" 
d="M588 -1h-82l-337 561v-560h-78v700h78l344 -582v582h75v-701z" />
    <glyph glyph-name="Y" unicode="Y" horiz-adv-x="552" 
d="M539 700l-230 -385v-315h-75v315l-221 385h83l177 -324l185 324h81z" />
    <glyph glyph-name="S" unicode="S" horiz-adv-x="551" 
d="M443 675l-16 -67c3 0 -89 32 -165 32c-75 0 -118 -34 -118 -105c0 -168 350 -96 350 -331c0 -130 -83 -210 -234 -210c-81 0 -162 29 -205 55l25 57s91 -42 180 -42c97 0 159 44 159 129c0 168 -350 104 -350 339c0 116 75 178 193 178c61 0 123 -14 181 -35z" />
    <glyph glyph-name="H" unicode="H" horiz-adv-x="664" 
d="M573 0h-75v331h-332v-331h-75v700h75v-304h332v304h75v-700z" />
    <glyph glyph-name="I" unicode="I" horiz-adv-x="257" 
d="M166 0h-75v700h75v-700z" />
    <glyph glyph-name="V" unicode="V" horiz-adv-x="546" 
d="M533 700l-216 -700h-105l-199 700h84l171 -615l183 615h82z" />
    <glyph glyph-name="h" unicode="h" horiz-adv-x="556" 
d="M465 0h-75v329c0 77 -33 121 -101 121c-52 0 -99 -24 -123 -48v-402h-75v700h74v-237c33 26 62 50 140 50c88 0 160 -54 160 -162v-351z" />
    <glyph glyph-name="d" unicode="d" horiz-adv-x="542" 
d="M376 700h75v-700h-44l-25 57c-54 -38 -101 -65 -160 -65c-129 0 -180 101 -180 259c0 203 103 258 198 258c57 0 108 -29 136 -49v240zM376 124v260c-28 33 -79 61 -119 61c-107 0 -140 -64 -140 -192c0 -133 49 -196 110 -196c70 0 117 39 149 67z" />
    <glyph glyph-name="c" unicode="c" horiz-adv-x="433" 
d="M385 78l15 -59c-50 -15 -93 -24 -141 -24c-147 0 -215 103 -215 264s74 251 221 251c59 0 100 -15 132 -24l-30 -58c-31 9 -66 16 -99 16c-103 0 -143 -60 -143 -187c0 -126 43 -197 141 -197c43 0 77 6 119 18z" />
    <glyph glyph-name="s" unicode="s" horiz-adv-x="436" 
d="M201 59c70 0 115 31 115 92c0 121 -254 71 -254 227c0 85 58 132 157 132c60 0 135 -22 132 -24l-13 -64c1 0 -60 23 -117 23c-61 0 -84 -20 -84 -70c0 -89 254 -58 254 -230c0 -93 -68 -151 -186 -151c-58 0 -120 21 -151 39l18 56s65 -30 129 -30z" />
    <glyph glyph-name="i" unicode="i" horiz-adv-x="228" 
d="M77 0v500h75v-500h-75zM152 700v-89h-75v89h75z" />
    <glyph glyph-name="g" unicode="g" horiz-adv-x="542" 
d="M375 53l-7 -5c-47 -34 -92 -55 -146 -55c-129 0 -180 101 -180 259c0 203 103 258 198 258c57 0 105 -26 141 -74l26 65h44v-526c0 -151 -84 -215 -200 -215c-57 0 -99 16 -161 39l14 53c59 -19 101 -27 147 -27c59 0 124 38 124 141v87zM375 125v187
c0 86 -71 133 -119 133c-107 0 -140 -63 -140 -191c0 -133 39 -196 110 -196c70 0 117 39 149 67z" />
    <glyph glyph-name="q" unicode="q" horiz-adv-x="542" 
d="M376 138v231c-27 43 -97 76 -145 76c-78 0 -114 -55 -114 -190c0 -99 21 -197 130 -197c51 0 103 31 129 80zM451 -240h-75v296c-19 -16 -47 -63 -139 -63c-99 0 -195 63 -195 244c0 153 51 273 193 273c56 0 109 -34 146 -67l26 57h44v-740z" />
    <glyph glyph-name="one" unicode="1" horiz-adv-x="519" 
d="M42 0v65h195v561l-172 -111l-37 56l209 129h75v-635h153v-65h-423z" />
    <glyph glyph-name="l" unicode="l" horiz-adv-x="257" 
d="M91 0v700h75v-700h-75z" />
    <glyph glyph-name="w" unicode="w" horiz-adv-x="679" 
d="M157 0l-146 500h78l111 -421l103 421h74l111 -425l102 425h78l-137 -500h-88l-103 395l-97 -395h-86z" />
    <glyph glyph-name="x" unicode="x" horiz-adv-x="436" 
d="M113 501l105 -177l105 177h83l-147 -246l153 -255h-83l-111 198l-111 -198h-83l153 255l-147 246h83z" />
    <glyph glyph-name="z" unicode="z" horiz-adv-x="421" 
d="M49 500h307v-60l-220 -375h232v-65h-319v60l220 375h-220v65z" />
    <glyph glyph-name="u" unicode="u" horiz-adv-x="544" 
d="M377 127v373h76v-500h-44l-25 59c-32 -26 -83 -65 -160 -65c-87 0 -143 58 -143 163v343h75v-331c0 -76 19 -111 79 -111c54 0 117 40 142 69z" />
    <glyph glyph-name="ydieresis" unicode="&#xff;" horiz-adv-x="445" 
d="M100 596v106h71v-106h-71zM279 596v106h71v-106h-71zM11 500l169 -510c-17 -90 -77 -148 -122 -174l28 -52c83 44 131 105 176 236l172 500h-83l-128 -420l-127 420h-85z" />
    <glyph glyph-name="j" unicode="j" horiz-adv-x="222" 
d="M146 700v-88h-75v88h75zM30 -204c33 43 41 96 41 170v534h75v-510c0 -117 -22 -176 -72 -229z" />
    <glyph glyph-name="m" unicode="m" horiz-adv-x="850" 
d="M302 511c57 0 109 -22 137 -68c35 28 87 68 159 68c87 0 161 -50 161 -158v-353h-73v322c0 84 -42 124 -101 124c-57 0 -113 -39 -127 -50c3 -13 5 -28 5 -43v-353h-73v322c0 84 -42 124 -101 124c-65 0 -94 -24 -123 -48v-398h-75v500h48l13 -51c35 29 73 62 150 62z
" />
    <glyph glyph-name="b" unicode="b" horiz-adv-x="546" 
d="M91 700h75v-250c51 36 97 61 154 61c129 0 180 -101 180 -259c0 -203 -103 -258 -198 -258c-57 0 -117 33 -145 55l-22 -49h-44v700zM166 379v-272c28 -33 79 -49 119 -49c107 0 140 64 140 192c0 133 -49 196 -110 196c-70 0 -117 -39 -149 -67z" />
    <glyph glyph-name="y" unicode="y" horiz-adv-x="445" 
d="M180 -10l-169 510h85l127 -420l128 420h83l-172 -500c-45 -131 -93 -192 -176 -236l-28 52c45 26 105 84 122 174z" />
    <glyph glyph-name="k" unicode="k" horiz-adv-x="509" 
d="M91 700h75v-412l214 212h95l-212 -203l223 -297h-85l-182 250l-53 -54v-196h-75v700z" />
    <glyph glyph-name="nine" unicode="9" horiz-adv-x="557" 
d="M271 281c-138 0 -218 70 -218 202c0 134 83 227 218 227c168 0 232 -120 232 -316c0 -218 -52 -400 -266 -400c-88 0 -151 33 -151 33l18 60s70 -27 142 -27c127 0 170 114 179 258c-24 -12 -85 -37 -154 -37zM266 645c-85 0 -138 -67 -138 -154c0 -102 56 -145 147 -145
c69 0 134 35 153 46v4c0 156 -43 249 -162 249z" />
    <glyph glyph-name="M" unicode="M" horiz-adv-x="737" 
d="M681 0h-75v574l-225 -390l-26 1l-225 388v-573h-74v700h84l229 -385l237 385h75v-700z" />
    <glyph glyph-name="seven" unicode="7" horiz-adv-x="507" 
d="M26 625v75h451v-75l-310 -625h-83l309 625h-367z" />
    <glyph glyph-name="C" unicode="C" horiz-adv-x="584" 
d="M346 -6c-194 0 -296 142 -296 359c0 216 111 356 307 356c62 0 101 -8 157 -29l-18 -62c-49 21 -109 26 -144 26c-142 0 -227 -113 -227 -280c0 -184 78 -305 218 -305c70 0 134 25 171 39l20 -52c-33 -20 -97 -52 -188 -52z" />
    <glyph glyph-name="zero" unicode="0" horiz-adv-x="580" 
d="M526 352c0 -177 -50 -358 -242 -358c-191 0 -229 183 -229 358c0 178 51 358 241 358c191 0 230 -182 230 -358zM451 350v4c0 155 -35 291 -160 291c-123 0 -161 -138 -161 -293c0 -156 37 -293 161 -293c123 0 160 136 160 291z" />
    <glyph glyph-name="f" unicode="f" horiz-adv-x="291" 
d="M113 500v96c0 89 68 114 129 114c28 0 49 -5 74 -13l-11 -54c-22 4 -34 6 -49 6c-43 0 -69 -17 -69 -67v-82h102v-60h-102v-440h-75v440h-77v60h78z" />
    <glyph glyph-name="R" unicode="R" horiz-adv-x="603" 
d="M228 329h-62v-328h-75v700h202c139 0 205 -67 205 -179c0 -79 -62 -157 -144 -168c64 -15 80 -29 118 -119l99 -234h-79l-97 224c-37 86 -72 104 -167 104zM289 637h-123v-244h113c85 0 135 57 135 127c0 78 -47 117 -125 117z" />
    <glyph glyph-name="P" unicode="P" horiz-adv-x="541" 
d="M268 294h-102v-294h-75v700h200c153 0 213 -68 213 -199c0 -146 -93 -207 -236 -207zM257 636h39h-130v-278h66c132 0 197 32 197 141c0 95 -51 137 -172 137z" />
    <glyph glyph-name="Q" unicode="Q" horiz-adv-x="651" 
d="M533 96l98 -101l-49 -49l-95 101c-42 -34 -97 -54 -164 -54c-192 0 -277 166 -277 362c0 198 88 355 277 355c191 0 279 -157 279 -355c0 -99 -23 -195 -69 -259zM399 238l82 -89c32 53 46 133 46 211c0 142 -67 286 -203 286c-148 0 -202 -148 -202 -291
c0 -156 63 -296 202 -296c46 0 83 14 113 38l-88 92z" />
    <glyph glyph-name="four" unicode="4" horiz-adv-x="540" 
d="M331 -1v132h-316v49l219 520h75l-212 -504h234v186h72v-186h83v-65h-83v-132h-72z" />
    <glyph glyph-name="five" unicode="5" horiz-adv-x="558" 
d="M429 220c0 97 -77 140 -197 140c-64 0 -132 1 -132 1l24 339h357l-5 -65h-288l-11 -211s32 1 63 1c157 0 264 -70 264 -195c0 -141 -84 -236 -247 -236c-111 0 -194 53 -194 53l23 53s90 -40 177 -40c105 0 166 60 166 160z" />
    <glyph glyph-name="three" unicode="3" horiz-adv-x="528" 
d="M136 391h95c94 0 145 60 145 133c0 75 -36 121 -134 121c-76 0 -161 -41 -161 -41l-14 58s78 48 172 48c148 0 212 -73 212 -178c0 -87 -55 -158 -134 -173c89 -13 157 -71 157 -162c0 -127 -89 -203 -243 -203c-109 0 -182 47 -182 47l25 56s82 -38 169 -38
c100 0 155 51 155 126c0 85 -59 141 -167 141h-95v65z" />
    <glyph glyph-name="six" unicode="6" horiz-adv-x="576" 
d="M304 423c138 0 218 -70 218 -202c0 -134 -83 -227 -218 -227c-168 0 -232 120 -232 316c0 218 52 400 266 400c88 0 151 -33 151 -33l-18 -60s-70 27 -142 27c-128 0 -170 -114 -180 -258c25 11 85 37 155 37zM309 59c85 0 138 67 138 154c0 102 -56 145 -147 145
c-70 0 -135 -36 -153 -47c0 -159 43 -252 162 -252z" />
    <glyph glyph-name="two" unicode="2" horiz-adv-x="524" 
d="M470 65l-1 -65h-412v72c205 209 321 347 321 455c0 94 -60 118 -131 118c-84 0 -163 -21 -163 -21l-14 58s76 28 175 28c141 0 209 -68 209 -171c0 -135 -116 -282 -303 -474h319z" />
    <glyph glyph-name="eight" unicode="8" horiz-adv-x="575" 
d="M503 545c0 -110 -68 -177 -99 -201c64 -33 117 -75 117 -150c0 -126 -86 -200 -240 -200c-153 0 -219 92 -219 191c0 104 92 161 126 179c-58 32 -103 77 -103 155c0 123 84 191 216 191c128 0 202 -79 202 -165zM446 185c0 76 -82 109 -188 147
c-32 -14 -121 -63 -121 -143c0 -71 44 -132 154 -132c88 0 155 50 155 128zM430 530c0 65 -51 115 -131 115c-82 0 -141 -47 -141 -116c0 -83 88 -117 181 -155c28 21 91 77 91 156z" />
    <glyph glyph-name="B" unicode="B" horiz-adv-x="587" 
d="M91 0v700h200c145 0 213 -67 213 -179c0 -79 -56 -131 -141 -142c107 -16 169 -81 169 -169c0 -125 -90 -210 -248 -210h-193zM169 65h139c90 0 146 63 146 139s-53 139 -167 139h-118v-278zM296 635h-127v-228h117c68 0 140 41 140 111c0 78 -42 114 -130 117z" />
    <glyph glyph-name="W" unicode="W" horiz-adv-x="751" 
d="M738 699l-166 -699h-87l-102 406l-125 -406h-82l-163 699h86l122 -614l133 425h56l123 -425l126 614h79z" />
    <glyph glyph-name="G" unicode="G" horiz-adv-x="646" 
d="M362 -6c-194 0 -316 142 -316 359c0 216 111 357 307 357c62 0 129 -14 187 -36l-18 -62c-50 21 -140 33 -174 33c-142 0 -227 -114 -227 -281c0 -180 95 -305 230 -305c50 0 96 8 134 20v211h-146v65h221v-307c-35 -20 -107 -54 -198 -54z" />
    <glyph glyph-name="D" unicode="D" horiz-adv-x="647" 
d="M597 375c0 -225 -141 -375 -360 -375h-146v700h177c201 0 329 -137 329 -325zM516 383c0 165 -119 252 -244 252h-100v-570h74c142 0 270 112 270 318z" />
    <glyph glyph-name="U" unicode="U" horiz-adv-x="664" 
d="M332 -6c-156 0 -241 88 -241 264v442h76v-454c0 -118 58 -187 165 -187c101 0 165 65 165 187v454h76v-442c0 -176 -85 -264 -241 -264z" />
    <glyph glyph-name="Z" unicode="Z" horiz-adv-x="508" 
d="M479 0h-439v62l320 573h-321v65h409v-57l-317 -577h348v-66z" />
    <glyph glyph-name="J" unicode="J" horiz-adv-x="343" 
d="M252 211c0 -141 -45 -218 -151 -218c-40 0 -70 4 -100 11v63c18 -3 42 -9 89 -9c73 0 87 81 87 170v413h-145v59h220v-489z" />
    <glyph glyph-name="exclam" unicode="!" horiz-adv-x="266" 
d="M171 190h-75v511h75v-511zM170 0h-75v93h75v-93z" />
    <glyph glyph-name="quotedbl" unicode="&#x22;" horiz-adv-x="378" 
d="M322 442h-75v259h75v-259zM130 442h-75v259h75v-259z" />
    <glyph glyph-name="parenleft" unicode="(" horiz-adv-x="282" 
d="M78 311c0 154 42 317 123 453l66 -13c-73 -135 -114 -287 -114 -443c0 -151 42 -294 112 -426l-69 -12c-78 136 -118 287 -118 441z" />
    <glyph glyph-name="parenright" unicode=")" horiz-adv-x="282" 
d="M211 311c0 -154 -40 -305 -118 -441l-69 12c70 132 112 275 112 426c0 156 -41 308 -114 443l66 13c81 -136 123 -299 123 -453z" />
    <glyph glyph-name="plus" unicode="+" horiz-adv-x="469" 
d="M440 262h-173v-193h-75v193h-164v65h164v200h75v-200h173v-65z" />
    <glyph glyph-name="quotesingle" unicode="'" horiz-adv-x="185" 
d="M130 367h-75v259h75v-259z" />
    <glyph glyph-name="comma" unicode="," horiz-adv-x="244" 
d="M187 87l-113 -259l-49 16l87 267z" />
    <glyph glyph-name="hyphen" unicode="-" horiz-adv-x="287" 
d="M239 254h-191v75h191v-75z" />
    <glyph glyph-name="period" unicode="." horiz-adv-x="183" 
d="M129 0h-75v106h75v-106z" />
    <glyph glyph-name="asterisk" unicode="*" horiz-adv-x="430" 
d="M383 490l-31 -58l-119 81l13 -143h-65l10 143l-119 -81l-31 53l130 63l-129 63l35 55l114 -82l-10 143h65l-13 -143l119 81l31 -57l-130 -58z" />
    <glyph glyph-name="slash" unicode="/" horiz-adv-x="491" 
d="M451 800l-324 -945h-80l325 945h79z" />
    <glyph glyph-name="colon" unicode=":" horiz-adv-x="217" 
d="M146 0h-75v106h75v-106zM146 394h-75v106h75v-106z" />
    <glyph glyph-name="semicolon" unicode=";" horiz-adv-x="276" 
d="M205 394h-75v106h75v-106zM205 89l-113 -259l-49 16l90 267z" />
    <glyph glyph-name="equal" unicode="=" horiz-adv-x="580" 
d="M505 361h-430v65h430v-65zM505 163h-430v65h430v-65z" />
    <glyph glyph-name="numbersign" unicode="#" horiz-adv-x="619" 
d="M588 465h-104l-21 -209h98v-65h-105l-19 -191h-76l20 191h-159l-20 -191h-76l20 191h-116v65h122l23 209h-119v65h124l18 170h76l-18 -170h159l18 170h75l-16 -170h96v-65zM410 465h-159l-23 -209h159z" />
    <glyph glyph-name="bracketleft" unicode="[" horiz-adv-x="340" 
d="M301 -200h-210v1000h207v-65h-132v-871h135v-64z" />
    <glyph glyph-name="bracketright" unicode="]" horiz-adv-x="340" 
d="M249 -200h-210v64h135v871h-132v65h207v-1000z" />
    <glyph glyph-name="grave" unicode="`" horiz-adv-x="391" 
d="M264 592l-58 -21l-130 132l75 30z" />
    <glyph glyph-name="agrave" unicode="&#xe0;" 
d="M307 299h41c0 122 -22 146 -121 146c-60 0 -109 -10 -138 -21l-14 58c63 21 119 28 174 28c118 0 176 -57 176 -176v-334h-44l-26 59c-63 -52 -99 -65 -157 -65c-95 0 -148 62 -148 151c0 96 77 154 257 154zM349 236h-45c-141 0 -179 -28 -179 -85c0 -53 31 -94 79 -94
s86 19 145 74v105zM309 592l-58 -21l-130 132l75 30z" />
    <glyph glyph-name="egrave" unicode="&#xe8;" horiz-adv-x="489" 
d="M438 234h-319c0 -140 82 -176 160 -176c52 0 79 11 136 29l12 -58c-60 -21 -99 -35 -156 -35c-129 0 -227 73 -227 256c0 163 89 260 208 260s188 -85 188 -215c0 -18 -1 -44 -2 -61zM124 291h244c0 90 -26 154 -116 154c-93 0 -125 -73 -128 -154zM310 592l-58 -21
l-130 132l75 30z" />
    <glyph glyph-name="igrave" unicode="&#xec;" horiz-adv-x="226" 
d="M77 0v500h73v-500h-73zM152 586l-58 -21l-130 132l75 30z" />
    <glyph glyph-name="ugrave" unicode="&#xf9;" horiz-adv-x="554" 
d="M387 500v-373c-25 -29 -88 -69 -142 -69c-60 0 -79 35 -79 111v331h-75v-343c0 -105 56 -163 143 -163c77 0 128 39 160 65l25 -59h44v500h-76zM333 592l-58 -21l-130 132l75 30z" />
    <glyph glyph-name="ograve" unicode="&#xf2;" horiz-adv-x="518" 
d="M255 445c-108 0 -138 -72 -138 -197s43 -189 139 -189c97 0 144 57 144 189c0 128 -53 197 -145 197zM257 -6c-140 0 -215 97 -215 256s70 260 210 260s223 -101 223 -260s-78 -256 -218 -256zM326 592l-58 -21l-130 132l75 30z" />
    <glyph glyph-name="acute" unicode="&#xb4;" horiz-adv-x="404" 
d="M159 571l-58 21l113 141l75 -30z" />
    <glyph glyph-name="aacute" unicode="&#xe1;" 
d="M307 299h41c0 122 -22 146 -121 146c-60 0 -109 -10 -138 -21l-14 58c63 21 119 28 174 28c118 0 176 -57 176 -176v-334h-44l-26 59c-63 -52 -99 -65 -157 -65c-95 0 -148 62 -148 151c0 96 77 154 257 154zM349 236h-45c-141 0 -179 -28 -179 -85c0 -53 31 -94 79 -94
s86 19 145 74v105zM297 571l-58 21l113 141l75 -30z" />
    <glyph glyph-name="eacute" unicode="&#xe9;" horiz-adv-x="489" 
d="M438 234h-319c0 -140 82 -176 160 -176c52 0 79 11 136 29l12 -58c-60 -21 -99 -35 -156 -35c-129 0 -227 73 -227 256c0 163 89 260 208 260s188 -85 188 -215c0 -18 -1 -44 -2 -61zM124 291h244c0 90 -26 154 -116 154c-93 0 -125 -73 -128 -154zM240 571l-58 21
l113 141l75 -30z" />
    <glyph glyph-name="iacute" unicode="&#xed;" horiz-adv-x="226" 
d="M77 0v500h73v-500h-73zM139 571l-58 21l113 141l75 -30z" />
    <glyph glyph-name="oacute" unicode="&#xf3;" horiz-adv-x="518" 
d="M255 445c-108 0 -138 -72 -138 -197s43 -189 139 -189c97 0 144 57 144 189c0 128 -53 197 -145 197zM257 -6c-140 0 -215 97 -215 256s70 260 210 260s223 -101 223 -260s-78 -256 -218 -256zM254 571l-58 21l113 141l75 -30z" />
    <glyph glyph-name="uacute" unicode="&#xfa;" horiz-adv-x="554" 
d="M387 127v373h76v-500h-44l-25 59c-32 -26 -83 -65 -160 -65c-87 0 -143 58 -143 163v343h75v-331c0 -76 19 -111 79 -111c54 0 117 40 142 69zM271 571l-58 21l113 141l75 -30z" />
    <glyph glyph-name="percent" unicode="%" horiz-adv-x="737" 
d="M597 688l-408 -687h-78l408 687h78zM546 286c-48 0 -71 -54 -71 -122s20 -120 70 -120c54 0 73 52 73 120s-22 122 -72 122zM545 336c105 0 133 -86 133 -173c0 -98 -35 -169 -135 -169c-90 0 -128 71 -128 169c0 87 35 173 130 173zM176 646c-48 0 -71 -54 -71 -122
s20 -120 70 -120c54 0 73 52 73 120s-22 122 -72 122zM175 696c105 0 133 -86 133 -173c0 -98 -35 -169 -135 -169c-90 0 -128 71 -128 169c0 87 35 173 130 173z" />
    <glyph glyph-name="greater" unicode="&#x3e;" horiz-adv-x="528" 
d="M467 270l-392 -224v77l319 175l-319 173v80l392 -225v-56z" />
    <glyph glyph-name="less" unicode="&#x3c;" horiz-adv-x="528" 
d="M453 45l-392 224v57l392 225v-80l-319 -173l319 -175v-78z" />
    <glyph glyph-name="K" unicode="K" horiz-adv-x="573" 
d="M555 0h-94l-205 383l-90 -95v-288h-75v699h74v-315l292 316h92l-242 -266z" />
    <glyph glyph-name="X" unicode="X" horiz-adv-x="584" 
d="M564 0h-92l-178 315l-183 -315h-91l232 368l-211 333h95l161 -277l166 277h90l-214 -333z" />
    <glyph glyph-name="dollar" unicode="$" horiz-adv-x="508" 
d="M279 660c60 -6 126 -27 126 -27l-14 -60c3 0 -80 29 -147 29c-66 0 -103 -32 -103 -94c0 -148 309 -84 309 -292c0 -104 -62 -171 -171 -184v-92h-65v90c-65 4 -118 28 -152 49l22 50s80 -37 159 -37c86 0 141 39 141 114c0 148 -310 92 -310 300c0 95 60 146 140 154v87
h65v-87z" />
    <glyph glyph-name="Eacute" unicode="&#xc9;" horiz-adv-x="542" 
d="M468 0h-377v700h377v-65h-302v-222h277v-67h-277v-281h302v-65zM215 752l75 124h84l-98 -124h-61z" />
    <glyph glyph-name="Igrave" unicode="&#xcc;" horiz-adv-x="253" 
d="M187 0h-75v700h75v-700zM181 753h-61l-98 124h84z" />
    <glyph glyph-name="Iacute" unicode="&#xcd;" horiz-adv-x="254" 
d="M138 0h-75v700h75v-700zM70 753l75 124h84l-98 -124h-61z" />
    <glyph glyph-name="Ograve" unicode="&#xd2;" horiz-adv-x="648" 
d="M323 -5c191 0 279 164 279 360c0 198 -88 355 -279 355c-189 0 -277 -157 -277 -355c0 -196 85 -360 277 -360zM325 645c135 0 202 -143 202 -285c0 -158 -60 -299 -203 -299c-139 0 -202 138 -202 294c0 143 56 290 203 290zM336 753h-61l-98 124h84z" />
    <glyph glyph-name="Oacute" unicode="&#xd3;" horiz-adv-x="648" 
d="M323 -5c191 0 279 164 279 360c0 198 -88 355 -279 355c-189 0 -277 -157 -277 -355c0 -196 85 -360 277 -360zM325 645c135 0 202 -143 202 -285c0 -158 -60 -299 -203 -299c-139 0 -202 138 -202 294c0 143 56 290 203 290zM276 753l75 124h84l-98 -124h-61z" />
    <glyph glyph-name="Ugrave" unicode="&#xd9;" horiz-adv-x="664" 
d="M332 -6c156 0 241 88 241 264v442h-76v-454c0 -122 -64 -187 -165 -187c-107 0 -165 69 -165 187v454h-76v-442c0 -176 85 -264 241 -264zM367 754h-61l-98 124h84z" />
    <glyph glyph-name="Uacute" unicode="&#xda;" horiz-adv-x="664" 
d="M332 -6c156 0 241 88 241 264v442h-76v-454c0 -122 -64 -187 -165 -187c-107 0 -165 69 -165 187v454h-76v-442c0 -176 85 -264 241 -264zM298 753l75 124h84l-98 -124h-61z" />
    <glyph glyph-name="Aacute" unicode="&#xc1;" horiz-adv-x="579" 
d="M566 0h-84l-70 221h-251l-69 -221h-79l230 700h91zM395 286l-107 338l-108 -338h215zM254 752l75 124h84l-98 -124h-61z" />
    <glyph glyph-name="Agrave" unicode="&#xc0;" horiz-adv-x="579" 
d="M566 0h-84l-70 221h-251l-69 -221h-79l230 700h91zM395 286l-107 338l-108 -338h215zM313 753h-61l-98 124h84z" />
    <glyph glyph-name="yacute" unicode="&#xfd;" horiz-adv-x="445" 
d="M180 -10l-169 510h85l127 -420l128 420h83l-172 -500c-45 -131 -93 -192 -176 -236l-28 52c45 26 105 84 122 174zM201 571l-58 21l113 141l75 -30z" />
    <glyph glyph-name="Yacute" unicode="&#xdd;" horiz-adv-x="552" 
d="M539 700l-230 -385v-315h-75v315l-221 385h83l177 -324l185 324h81zM228 752l75 124h84l-98 -124h-61z" />
    <glyph glyph-name="backslash" unicode="\" horiz-adv-x="484" 
d="M363 -145l-324 945h79l325 -945h-80z" />
    <glyph glyph-name="asciicircum" unicode="^" horiz-adv-x="639" 
d="M347 667l224 -392h-77l-175 319l-173 -319h-80l225 392h56z" />
    <glyph glyph-name="bar" unicode="|" horiz-adv-x="291" 
d="M183 -203h-75v1003h75v-1003z" />
    <glyph glyph-name="ampersand" unicode="&#x26;" horiz-adv-x="756" 
d="M527 361h72c-8 -130 -26 -168 -47 -214l143 -146h-100l-82 89c-44 -53 -132 -97 -219 -97c-155 0 -235 81 -235 200c0 95 57 135 152 181c-71 63 -115 111 -115 165c0 101 81 171 192 171c116 0 187 -66 187 -160c0 -78 -47 -130 -149 -185l169 -164c20 41 32 102 32 160
zM466 138l-205 196c-74 -34 -127 -80 -127 -147c0 -76 61 -129 160 -129c73 0 144 42 172 80zM171 553c0 -53 52 -91 106 -144c66 33 126 76 126 146c0 63 -56 90 -118 90c-64 0 -114 -32 -114 -92z" />
    <glyph glyph-name="circumflex" unicode="&#x2c6;" horiz-adv-x="491" 
d="M223 820h47l136 -100l-19 -29l-141 75l-142 -75l-19 29z" />
    <glyph glyph-name="dieresis" unicode="&#xa8;" horiz-adv-x="513" 
d="M123 709v106h71v-106h-71zM302 709v106h71v-106h-71z" />
    <glyph glyph-name="tilde" unicode="&#x2dc;" 
d="M433 760v-7s-52 -70 -92 -70s-121 55 -150 55s-58 -38 -58 -38l-33 33s51 70 91 70s121 -55 150 -55s58 38 58 38z" />
    <glyph glyph-name="Atilde" unicode="&#xc3;" horiz-adv-x="579" 
d="M445 827c0 0 -52 -70 -92 -70s-121 55 -150 55s-58 -38 -58 -38l-33 26s51 70 91 70s121 -55 150 -55s58 38 58 38zM566 0h-84l-70 221h-251l-69 -221h-79l230 700h91zM395 286l-107 338l-108 -338h215z" />
    <glyph glyph-name="Ntilde" unicode="&#xd1;" horiz-adv-x="679" 
d="M492 831v-7s-52 -70 -92 -70s-121 55 -150 55s-58 -38 -58 -38l-33 33s51 70 91 70s121 -55 150 -55s58 38 58 38zM588 -1h-82l-337 561v-560h-78v700h78l344 -582v582h75v-701z" />
    <glyph glyph-name="ntilde" unicode="&#xf1;" horiz-adv-x="554" 
d="M166 397v-397h-75v500h48l12 -49c33 26 74 59 152 59c88 0 160 -55 160 -163v-347h-75v325c0 77 -33 121 -101 121c-52 0 -97 -25 -121 -49zM443 656v-7s-52 -70 -92 -70s-121 55 -150 55s-58 -38 -58 -38l-33 33s51 70 91 70s121 -55 150 -55s58 38 58 38z" />
    <glyph glyph-name="Adieresis" unicode="&#xc4;" horiz-adv-x="579" 
d="M566 0h-84l-70 221h-251l-69 -221h-79l230 700h91zM395 286l-107 338l-108 -338h215zM165 755v106h71v-106h-71zM344 755v106h71v-106h-71z" />
    <glyph glyph-name="Edieresis" unicode="&#xcb;" horiz-adv-x="542" 
d="M468 0h-377v700h377v-65h-302v-222h277v-67h-277v-281h302v-65zM151 755v106h71v-106h-71zM330 755v106h71v-106h-71z" />
    <glyph glyph-name="Udieresis" unicode="&#xdc;" horiz-adv-x="664" 
d="M332 -6c-156 0 -241 88 -241 264v442h76v-454c0 -118 58 -187 165 -187c101 0 165 65 165 187v454h76v-442c0 -176 -85 -264 -241 -264zM208 754v106h71v-106h-71zM387 754v106h71v-106h-71z" />
    <glyph glyph-name="Odieresis" unicode="&#xd6;" horiz-adv-x="648" 
d="M323 -5c191 0 279 164 279 360c0 198 -88 355 -279 355c-189 0 -277 -157 -277 -355c0 -196 85 -360 277 -360zM325 645c135 0 202 -143 202 -285c0 -158 -60 -299 -203 -299c-139 0 -202 138 -202 294c0 143 56 290 203 290zM199 754v106h71v-106h-71zM378 754v106h71
v-106h-71z" />
    <glyph glyph-name="Otilde" unicode="&#xd5;" horiz-adv-x="648" 
d="M467 824c0 0 -52 -70 -92 -70s-121 55 -150 55s-58 -38 -58 -38l-33 26s51 70 91 70s121 -55 150 -55s58 38 58 38zM323 -5c191 0 279 164 279 360c0 198 -88 355 -279 355c-189 0 -277 -157 -277 -355c0 -196 85 -360 277 -360zM325 645c135 0 202 -143 202 -285
c0 -158 -60 -299 -203 -299c-139 0 -202 138 -202 294c0 143 56 290 203 290z" />
    <glyph glyph-name="Idieresis" unicode="&#xcf;" horiz-adv-x="226" 
d="M149 0h-75v700h75v-700zM-13 755v106h71v-106h-71zM166 755v106h71v-106h-71z" />
    <glyph glyph-name="udieresis" unicode="&#xfc;" horiz-adv-x="554" 
d="M387 500v-373c-25 -29 -88 -69 -142 -69c-60 0 -79 35 -79 111v331h-75v-343c0 -105 56 -163 143 -163c77 0 128 39 160 65l25 -59h44v500h-76zM152 594v106h71v-106h-71zM331 594v106h71v-106h-71z" />
    <glyph glyph-name="odieresis" unicode="&#xf6;" horiz-adv-x="518" 
d="M255 445c-108 0 -138 -72 -138 -197s43 -189 139 -189c97 0 144 57 144 189c0 128 -53 197 -145 197zM257 -6c-140 0 -215 97 -215 256s70 260 210 260s223 -101 223 -260s-78 -256 -218 -256zM133 594v106h71v-106h-71zM312 594v106h71v-106h-71z" />
    <glyph glyph-name="idieresis" unicode="&#xef;" horiz-adv-x="228" 
d="M77 0v500h75v-500h-75zM-10 594v106h71v-106h-71zM169 594v106h71v-106h-71z" />
    <glyph glyph-name="eth" unicode="&#xf0;" horiz-adv-x="573" 
d="M296 443c-108 0 -136 -66 -136 -191s41 -193 137 -193c97 0 144 61 144 193c0 128 -43 191 -145 191zM379 701l-112 -58s135 -128 192 -194c39 -45 57 -110 57 -195c0 -159 -78 -260 -218 -260s-215 101 -215 260s74 255 225 257l-97 98l-109 -61l-39 40l113 63
c-28 23 -64 54 -90 72l52 35l91 -77l112 58z" />
    <glyph glyph-name="otilde" unicode="&#xf5;" horiz-adv-x="518" 
d="M255 445c92 0 145 -69 145 -197c0 -132 -47 -189 -144 -189c-96 0 -139 64 -139 189s30 197 138 197zM257 -6c140 0 218 97 218 256s-83 260 -223 260s-210 -101 -210 -260s75 -256 215 -256zM426 657v-7s-52 -70 -92 -70s-121 55 -150 55s-58 -38 -58 -38l-33 33
s51 70 91 70s121 -55 150 -55s58 38 58 38z" />
    <glyph glyph-name="edieresis" unicode="&#xeb;" horiz-adv-x="489" 
d="M438 234h-319c0 -140 82 -176 160 -176c52 0 79 11 136 29l12 -58c-60 -21 -99 -35 -156 -35c-129 0 -227 73 -227 256c0 163 89 260 208 260s188 -85 188 -215c0 -18 -1 -44 -2 -61zM124 291h244c0 90 -26 154 -116 154c-93 0 -125 -73 -128 -154zM123 595v106h71v-106
h-71zM302 595v106h71v-106h-71z" />
    <glyph glyph-name="ecircumflex" unicode="&#xea;" horiz-adv-x="489" 
d="M438 234h-319c0 -140 82 -176 160 -176c52 0 79 11 136 29l12 -58c-60 -21 -99 -35 -156 -35c-129 0 -227 73 -227 256c0 163 89 260 208 260s188 -85 188 -215c0 -18 -1 -44 -2 -61zM124 291h244c0 90 -26 154 -116 154c-93 0 -125 -73 -128 -154zM226 712h47l136 -100
l-19 -29l-141 75l-142 -75l-19 29z" />
    <glyph glyph-name="icircumflex" unicode="&#xee;" horiz-adv-x="228" 
d="M77 0v500h75v-500h-75zM92 712h47l136 -100l-19 -29l-141 75l-142 -75l-19 29z" />
    <glyph glyph-name="ocircumflex" unicode="&#xf4;" horiz-adv-x="518" 
d="M255 445c-108 0 -138 -72 -138 -197s43 -189 139 -189c97 0 144 57 144 189c0 128 -53 197 -145 197zM257 -6c-140 0 -215 97 -215 256s70 260 210 260s223 -101 223 -260s-78 -256 -218 -256zM236 712h47l136 -100l-19 -29l-141 75l-142 -75l-19 29z" />
    <glyph glyph-name="ucircumflex" unicode="&#xfb;" horiz-adv-x="554" 
d="M387 127v373h76v-500h-44l-25 59c-32 -26 -83 -65 -160 -65c-87 0 -143 58 -143 163v343h75v-331c0 -76 19 -111 79 -111c54 0 117 40 142 69zM254 712h47l136 -100l-19 -29l-141 75l-142 -75l-19 29z" />
    <glyph glyph-name="acircumflex" unicode="&#xe2;" 
d="M307 299h41c0 122 -22 146 -121 146c-60 0 -109 -10 -138 -21l-14 58c63 21 119 28 174 28c118 0 176 -57 176 -176v-334h-44l-26 59c-63 -52 -99 -65 -157 -65c-95 0 -148 62 -148 151c0 96 77 154 257 154zM349 236h-45c-141 0 -179 -28 -179 -85c0 -53 31 -94 79 -94
s86 19 145 74v105zM229 712h47l136 -100l-19 -29l-141 75l-142 -75l-19 29z" />
    <glyph glyph-name="atilde" unicode="&#xe3;" 
d="M307 299h41c0 122 -22 146 -121 146c-60 0 -109 -10 -138 -21l-14 58c63 21 119 28 174 28c118 0 176 -57 176 -176v-334h-44l-26 59c-63 -52 -99 -65 -157 -65c-95 0 -148 62 -148 151c0 96 77 154 257 154zM349 236h-45c-141 0 -179 -28 -179 -85c0 -53 31 -94 79 -94
s86 19 145 74v105zM419 657v-7s-52 -70 -92 -70s-121 55 -150 55s-58 -38 -58 -38l-33 33s51 70 91 70s121 -55 150 -55s58 38 58 38z" />
    <glyph glyph-name="adieresis" unicode="&#xe4;" 
d="M307 299h41c0 122 -22 146 -121 146c-60 0 -109 -10 -138 -21l-14 58c63 21 119 28 174 28c118 0 176 -57 176 -176v-334h-44l-26 59c-63 -52 -99 -65 -157 -65c-95 0 -148 62 -148 151c0 96 77 154 257 154zM349 236h-45c-141 0 -179 -28 -179 -85c0 -53 31 -94 79 -94
s86 19 145 74v105zM127 594v106h71v-106h-71zM306 594v106h71v-106h-71z" />
    <glyph glyph-name="exclamdown" unicode="&#xa1;" horiz-adv-x="266" 
d="M95 404h75v-511h-75v511zM96 594h75v-93h-75v93z" />
    <glyph glyph-name="Icircumflex" unicode="&#xce;" horiz-adv-x="312" 
d="M196 0h-75v700h75v-700zM137 883h47l136 -100l-19 -29l-141 75l-142 -75l-19 29z" />
    <glyph glyph-name="Ocircumflex" unicode="&#xd4;" horiz-adv-x="648" 
d="M323 -5c-192 0 -277 164 -277 360c0 198 88 355 277 355c191 0 279 -157 279 -355c0 -196 -88 -360 -279 -360zM325 645c-147 0 -203 -147 -203 -290c0 -156 63 -294 202 -294c143 0 203 141 203 299c0 142 -67 285 -202 285zM301 883h47l136 -100l-19 -29l-141 75
l-142 -75l-19 29z" />
    <glyph glyph-name="Ecircumflex" unicode="&#xca;" horiz-adv-x="543" 
d="M468 0h-377v700h377v-65h-302v-222h277v-67h-277v-281h302v-65zM238 880h47l136 -100l-19 -29l-141 75l-142 -75l-19 29z" />
    <glyph glyph-name="Ucircumflex" unicode="&#xdb;" horiz-adv-x="664" 
d="M332 -6c-156 0 -241 88 -241 264v442h76v-454c0 -118 58 -187 165 -187c101 0 165 65 165 187v454h76v-442c0 -176 -85 -264 -241 -264zM310 883h47l136 -100l-19 -29l-141 75l-142 -75l-19 29z" />
    <glyph glyph-name="question" unicode="?" horiz-adv-x="463" 
d="M398 559c0 -153 -161 -164 -161 -302v-63h-74v58c0 161 160 179 160 299c0 55 -32 93 -111 93c-34 0 -83 -6 -121 -19l-11 58c48 16 100 27 145 27c108 0 173 -58 173 -151zM236 0h-75v98h75v-98z" />
    <glyph glyph-name="questiondown" unicode="&#xbf;" horiz-adv-x="463" 
d="M65 43c0 153 161 164 161 302v63h74v-58c0 -161 -160 -179 -160 -299c0 -55 32 -93 111 -93c34 0 83 6 121 19l11 -58c-48 -16 -100 -27 -145 -27c-108 0 -173 58 -173 151zM227 608h75v-98h-75v98z" />
    <glyph glyph-name="ellipsis" unicode="&#x2026;" horiz-adv-x="738" 
d="M130 0h-75v106h75v-106zM401 0h-75v106h75v-106zM672 0h-75v106h75v-106z" />
    <glyph glyph-name="quotedblbase" unicode="&#x201e;" horiz-adv-x="465" 
d="M407 96l-114 -255l-53 16l89 263zM205 98l-111 -257l-53 16l87 265z" />
    <glyph glyph-name="quotesinglbase" unicode="&#x201a;" horiz-adv-x="268" 
d="M210 98l-113 -260l-56 17l88 267z" />
    <glyph glyph-name="guillemotleft" unicode="&#xab;" horiz-adv-x="511" 
d="M436 108l-50 -19l-131 208l132 209l49 -18l-103 -189zM249 97l-51 -19l-138 219l140 221l49 -19l-109 -200z" />
    <glyph glyph-name="guillemotright" unicode="&#xbb;" horiz-adv-x="511" 
d="M75 488l50 19l131 -208l-132 -209l-49 18l103 189zM262 499l51 19l138 -219l-140 -221l-49 19l109 200z" />
    <glyph glyph-name="logicalnot" unicode="&#xac;" horiz-adv-x="518" 
d="M467 125h-75v144h-354v65h429v-209z" />
    <glyph glyph-name="quotedblleft" unicode="&#x201c;" horiz-adv-x="466" 
d="M57 512l114 255l53 -16l-89 -263zM259 510l111 257l53 -16l-87 -265z" />
    <glyph glyph-name="quotedblright" unicode="&#x201d;" horiz-adv-x="465" 
d="M407 741l-114 -255l-53 16l89 263zM205 743l-111 -257l-53 16l87 265z" />
    <glyph glyph-name="quoteleft" unicode="&#x2018;" horiz-adv-x="268" 
d="M57 510l114 259l55 -17l-87 -267z" />
    <glyph glyph-name="quoteright" unicode="&#x2019;" horiz-adv-x="267" 
d="M210 745l-113 -260l-56 17l88 267z" />
    <glyph glyph-name="periodcentered" unicode="&#xb7;" horiz-adv-x="181" 
d="M128 247h-75v103h75v-103z" />
    <glyph glyph-name="Ydieresis" unicode="&#x178;" horiz-adv-x="552" 
d="M539 700l-230 -385v-315h-75v315l-221 385h83l177 -324l185 324h81zM151 816v106h71v-106h-71zM330 816v106h71v-106h-71z" />
    <glyph glyph-name="Egrave" unicode="&#xc8;" horiz-adv-x="542" 
d="M468 0h-377v700h377v-65h-302v-222h277v-67h-277v-281h302v-65zM330 753h-61l-98 124h84z" />
    <glyph glyph-name="bullet" unicode="&#x2022;" horiz-adv-x="470" 
d="M357 265c0 -72 -58 -129 -129 -129s-129 57 -129 129c0 71 58 129 129 129s129 -58 129 -129z" />
    <glyph glyph-name="twosuperior" unicode="&#xb2;" horiz-adv-x="436" 
d="M340 370l-9 -47h-230v32c98 99 155 156 155 208c0 43 -30 56 -61 56c-41 0 -80 -11 -80 -11l5 40s49 14 96 14c65 0 98 -32 98 -79c0 -68 -38 -124 -138 -213h164z" />
    <glyph glyph-name="braceleft" unicode="{" horiz-adv-x="356" 
d="M124 145c0 85 -28 133 -94 133v46c76 0 94 45 94 127v150c0 146 70 200 181 200h21v-64h-20c-85 0 -107 -40 -107 -146v-153c0 -90 -11 -116 -76 -134c61 -13 76 -52 76 -132v-151c0 -128 30 -158 110 -158h17v-64h-23c-108 0 -179 48 -179 196v150z" />
    <glyph glyph-name="braceright" unicode="}" horiz-adv-x="356" 
d="M232 145v-150c0 -148 -71 -196 -179 -196h-23v64h17c80 0 110 30 110 158v151c0 80 15 119 76 132c-65 18 -76 44 -76 134v153c0 106 -22 146 -107 146h-20v64h21c111 0 181 -54 181 -200v-150c0 -82 18 -127 94 -127v-46c-66 0 -94 -48 -94 -133z" />
    <glyph glyph-name="Eth" unicode="&#xd0;" horiz-adv-x="695" 
d="M119 317h-83v65h83v318h177c201 0 329 -137 329 -325c0 -225 -141 -375 -360 -375h-146v317zM200 317v-252h74c142 0 270 112 270 318c0 165 -119 252 -244 252h-100v-253h176v-65h-176z" />
    <glyph glyph-name="registered" unicode="&#xae;" horiz-adv-x="551" 
d="M270 662c-104 0 -149 -98 -149 -228c0 -128 60 -220 150 -220c104 0 163 85 163 220c0 133 -63 228 -164 228zM272 164c-135 0 -206 107 -206 273c0 168 66 275 202 275s216 -107 216 -275c0 -166 -76 -273 -212 -273zM238 426h-12v-121h-40v279h86c56 0 85 -26 85 -72
c0 -30 -25 -62 -58 -65c26 -7 30 -14 48 -48l42 -94h-46l-37 79c-16 34 -31 42 -68 42zM273 550h-47v-77h41c32 0 50 15 50 39c0 30 -17 38 -44 38z" />
    <glyph glyph-name="copyright" unicode="&#xa9;" horiz-adv-x="551" 
d="M351 162l9 -41c-28 -8 -51 -12 -79 -12c-82 0 -120 58 -120 147c0 90 42 140 123 140c34 0 57 -9 75 -13l-16 -40c-19 5 -34 9 -52 9c-58 0 -79 -22 -79 -93c0 -70 24 -107 78 -107c25 0 38 2 61 10zM270 479c-104 0 -149 -98 -149 -228c0 -128 60 -220 150 -220
c104 0 158 85 158 220c0 133 -58 228 -159 228zM272 -19c-135 0 -206 107 -206 273c0 168 66 275 202 275s216 -107 216 -275c0 -166 -76 -273 -212 -273z" />
    <glyph glyph-name="paragraph" unicode="&#xb6;" horiz-adv-x="599" 
d="M308 -203h-65v561c-107 0 -173 79 -173 173c0 84 50 179 199 179h265v-60h-70v-853h-65v853h-91v-853z" />
    <glyph glyph-name="AE" unicode="&#xc6;" horiz-adv-x="851" 
d="M777 0h-397v221h-180l-108 -221h-79l328 700h436v-65h-322v-222h297v-67h-297v-281h322v-65zM380 634l-150 -348h150v348z" />
    <glyph glyph-name="Scaron" unicode="&#x160;" horiz-adv-x="551" 
d="M293 773h-47l-136 100l19 29l141 -75l142 75l19 -29zM443 675l-16 -67c3 0 -89 32 -165 32c-75 0 -118 -34 -118 -105c0 -168 350 -96 350 -331c0 -130 -83 -210 -234 -210c-81 0 -162 29 -205 55l25 57s91 -42 180 -42c97 0 159 44 159 129c0 168 -350 104 -350 339
c0 116 75 178 193 178c61 0 123 -14 181 -35z" />
    <glyph glyph-name="scaron" unicode="&#x161;" horiz-adv-x="445" 
d="M243 589h-47l-136 100l19 29l141 -75l142 75l19 -29zM201 59c70 0 115 31 115 92c0 121 -254 71 -254 227c0 85 58 132 157 132c60 0 135 -22 132 -24l-13 -64c1 0 -60 23 -117 23c-61 0 -84 -20 -84 -70c0 -89 254 -58 254 -230c0 -93 -68 -151 -186 -151
c-58 0 -120 21 -151 39l18 56s65 -30 129 -30z" />
    <glyph glyph-name="ae" unicode="&#xe6;" horiz-adv-x="789" 
d="M349 236h-45c-141 0 -179 -28 -179 -85c0 -53 31 -94 79 -94s86 19 145 74v105zM384 84c-60 -63 -128 -90 -186 -90c-95 0 -148 62 -148 151c0 96 77 154 257 154h41c0 122 -22 146 -121 146c-60 0 -109 -10 -138 -21l-14 58c63 21 119 28 174 28c75 0 126 -23 153 -70
c37 45 89 70 149 70c119 0 188 -85 188 -215c0 -18 -1 -44 -2 -61h-319c0 -140 82 -176 160 -176c52 0 79 11 136 29l12 -58c-60 -21 -99 -35 -156 -35c-79 0 -146 27 -186 90zM423 291h244c0 90 -26 154 -116 154c-93 0 -125 -73 -128 -154z" />
    <glyph glyph-name="onehalf" unicode="&#xbd;" horiz-adv-x="816" 
d="M653 688l-408 -688h-73l408 688h73zM762 46l-9 -46h-230v33c99 99 155 154 155 206c0 43 -30 56 -61 56c-41 0 -80 -11 -80 -11l5 40s49 14 96 14c65 0 98 -32 98 -79c0 -68 -38 -124 -138 -213h164zM75 316v48h70v236l-83 -50l-20 49l103 63h50v-298h70v-48h-190z" />
    <glyph glyph-name="Acircumflex" unicode="&#xc2;" horiz-adv-x="579" 
d="M566 0h-84l-70 221h-251l-69 -221h-79l230 700h91zM395 286l-107 338l-108 -338h215zM268 880h47l136 -100l-19 -29l-141 75l-142 -75l-19 29z" />
    <glyph glyph-name="underscore" unicode="_" horiz-adv-x="430" 
d="M430 -236h-430v65h430v-65z" />
    <glyph glyph-name="endash" unicode="&#x2013;" horiz-adv-x="500" 
d="M500 257h-500v65h500v-65z" />
    <glyph glyph-name="emdash" unicode="&#x2014;" horiz-adv-x="800" 
d="M800 257h-800v65h800v-65z" />
    <glyph glyph-name="Thorn" unicode="&#xde;" horiz-adv-x="546" 
d="M158 700v-110h131c153 -1 213 -68 213 -199c0 -146 -93 -207 -236 -207h-102v-184h-75v700h69zM255 526h39h-130v-278h66c132 0 197 32 197 141c0 95 -51 137 -172 137z" />
    <glyph glyph-name="degree" unicode="&#xb0;" horiz-adv-x="452" 
d="M392 610c0 -92 -75 -166 -167 -166c-94 0 -167 73 -167 166c0 92 75 166 167 166c93 0 167 -73 167 -166zM331 612c0 61 -48 110 -107 110s-107 -49 -107 -110c0 -62 48 -111 107 -111s107 48 107 111z" />
    <glyph glyph-name="multiply" unicode="&#xd7;" horiz-adv-x="608" 
d="M555 498l-202 -202l200 -201l-53 -53l-200 201l-194 -193l-45 46l193 193l-199 200l53 53l199 -200l202 202z" />
    <glyph glyph-name="brokenbar" unicode="&#xa6;" horiz-adv-x="314" 
d="M185 413h-65v393h65v-393zM185 -194h-65v395h65v-395z" />
    <glyph glyph-name="oe" unicode="&#x153;" horiz-adv-x="861" 
d="M255 449c-108 0 -136 -72 -136 -197s41 -193 137 -193c97 0 144 61 144 193c0 128 -53 197 -145 197zM447 404c37 67 103 106 177 106c119 0 188 -85 188 -215c0 -18 -1 -44 -2 -61h-319c0 -140 82 -176 160 -176c52 0 79 11 136 29l12 -58c-60 -21 -99 -35 -156 -35
c-86 0 -160 33 -199 109c-35 -69 -99 -109 -187 -109c-140 0 -215 101 -215 260s70 260 210 260c81 0 165 -51 195 -110zM496 291h244c0 90 -26 154 -116 154c-93 0 -125 -73 -128 -154z" />
    <glyph glyph-name="Oslash" unicode="&#xd8;" horiz-adv-x="648" 
d="M210 103l178 530c-19 8 -40 12 -63 12c-147 0 -203 -147 -203 -290c0 -104 28 -200 88 -252zM449 595l-176 -527c16 -5 33 -7 51 -7c143 0 203 141 203 299c0 87 -28 180 -78 235zM515 800l-47 -137c84 -61 134 -175 134 -308c0 -196 -88 -360 -279 -360
c-28 0 -64 5 -79 16l-44 -120h-68l48 144c-92 60 -134 182 -134 320c0 198 88 355 277 355c32 0 62 -5 88 -13l35 103h69z" />
    <glyph glyph-name="yen" unicode="&#xa5;" horiz-adv-x="610" 
d="M340 236v-87h186v-65h-186v-84h-75v84h-168v65h168v87h-168v65h168l-221 399h83l178 -334l184 334h81l-230 -399s187 0 186 0v-65h-186z" />
    <glyph glyph-name="plusminus" unicode="&#xb1;" horiz-adv-x="503" 
d="M458 357h-173v-193h-75v193h-164v65h164v200h75v-200h173v-65zM458 -1h-412v65h412v-65z" />
    <glyph glyph-name="mu" unicode="&#xb5;" horiz-adv-x="558" 
d="M167 10v-246h-75v736h76v-331c0 -76 19 -112 79 -112s108 37 142 70v373h76v-500h-44l-25 59c-47 -34 -90 -65 -147 -65c-44 0 -82 16 -82 16z" />
    <glyph glyph-name="mu" unicode="&#x3bc;" horiz-adv-x="558" 
d="M167 10v-246h-75v736h76v-331c0 -76 19 -112 79 -112s108 37 142 70v373h76v-500h-44l-25 59c-47 -34 -90 -65 -147 -65c-44 0 -82 16 -82 16z" />
    <glyph glyph-name="daggerdbl" unicode="&#x2021;" horiz-adv-x="520" 
d="M287 183v-183h-65v183h-177v65h177v262h-177v65h177v175h65v-175h188v-65h-188v-262h188v-65h-188z" />
    <glyph glyph-name="trademark" unicode="&#x2122;" horiz-adv-x="686" 
d="M629 418h-54v194l-91 -117h-10l-81 117v-194h-53v282h57l87 -130l91 130h54v-282zM129 418v230h-79v52h216v-52h-81v-230h-56z" />
    <glyph glyph-name="Zcaron" unicode="&#x17d;" horiz-adv-x="508" 
d="M270 773h-47l-136 100l19 29l141 -75l142 75l19 -29zM479 0h-439v62l320 573h-321v65h409v-57l-317 -577h348v-66z" />
    <glyph glyph-name="zcaron" unicode="&#x17e;" horiz-adv-x="412" 
d="M223 589h-47l-136 100l19 29l141 -75l142 75l19 -29zM46 500h304v-60l-220 -375h235v-65h-319v60l220 375h-220v65z" />
    <glyph glyph-name="divide" unicode="&#xf7;" horiz-adv-x="524" 
d="M305 0h-75v106h75v-106zM305 394h-75v106h75v-106zM478 228h-432v65h432v-65z" />
    <glyph glyph-name="OE" unicode="&#x152;" horiz-adv-x="873" 
d="M798 0l-476 1c-192 0 -277 158 -277 354c0 198 88 345 277 345h476v-66h-302v-221h277v-67h-277v-275h302v-71zM323 70h106v564h-105c-147 0 -203 -136 -203 -279c0 -156 63 -285 202 -285z" />
    <glyph glyph-name="section" unicode="&#xa7;" horiz-adv-x="604" 
d="M246 436c-66 -43 -95 -81 -95 -124c0 -85 137 -101 222 -157c45 32 76 45 76 109c0 92 -118 117 -203 172zM147 -49c42 -26 97 -43 142 -43c86 0 126 37 126 94c0 148 -338 117 -339 310c0 62 45 115 119 165c-22 22 -37 50 -37 85c0 102 58 148 175 148
c72 0 132 -27 132 -27l-12 -62s-59 24 -122 24c-46 0 -97 -20 -97 -86c0 -111 289 -122 290 -293c0 -63 -25 -99 -96 -149c38 -28 62 -68 62 -118c0 -87 -74 -156 -210 -156c-53 0 -118 23 -152 43z" />
    <glyph glyph-name="Ccedilla" unicode="&#xc7;" horiz-adv-x="584" 
d="M379 -5c0 -66 -11 -92 -63 -177l-49 31c32 65 40 83 40 147c-169 18 -257 155 -257 357c0 216 110 355 306 355c62 0 102 -7 158 -29l-18 -62c-49 21 -109 26 -144 26c-142 0 -227 -112 -227 -279c0 -184 78 -305 218 -305c70 0 133 24 171 39l20 -52
c-27 -17 -87 -37 -155 -51z" />
    <glyph glyph-name="ccedilla" unicode="&#xe7;" horiz-adv-x="433" 
d="M221 -2l-13 2c-112 22 -164 118 -164 259c0 161 74 251 221 251c59 -4 100 -15 132 -24l-30 -58c-31 9 -66 16 -99 16c-103 0 -143 -60 -143 -187c0 -126 43 -197 141 -197c43 0 77 6 119 18l15 -59c-38 -11 -73 -16 -111 -24c0 -66 -11 -92 -63 -177l-49 31
c33 64 44 85 44 149z" />
    <glyph glyph-name="guilsinglleft" unicode="&#x2039;" horiz-adv-x="330" 
d="M253 105l-56 -23l-138 214l139 216l55 -23l-108 -191z" />
    <glyph glyph-name="guilsinglright" unicode="&#x203a;" horiz-adv-x="330" 
d="M78 489l56 23l138 -214l-139 -216l-55 23l108 191z" />
    <glyph glyph-name="dagger" unicode="&#x2020;" horiz-adv-x="502" 
d="M285 78h-75v421h-167v65h167v176h75v-176h174v-65h-174v-421z" />
    <glyph glyph-name="asciitilde" unicode="~" horiz-adv-x="527" 
d="M473 308c-24 -53 -68 -82 -117 -82c-89 0 -115 59 -190 59c-29 0 -61 -19 -87 -45l-25 47c24 35 68 64 117 64c89 0 115 -60 190 -60c29 0 61 20 87 46z" />
    <glyph glyph-name="sterling" unicode="&#xa3;" horiz-adv-x="540" 
d="M203 415h167v-65h-167v-285h272v-65h-347v350h-68v65h68v181c0 89 70 115 133 115c28 0 49 -6 74 -14l-11 -54c-22 4 -34 6 -49 6c-43 0 -72 -25 -72 -75v-159z" />
    <glyph glyph-name="aring" unicode="&#xe5;" 
d="M253 772c77 0 113 -49 113 -109c0 -66 -34 -111 -112 -111s-112 45 -112 111c0 60 34 109 111 109zM254 728c-43 0 -56 -27 -56 -65c0 -37 10 -65 56 -65c48 0 58 28 58 65c0 38 -13 65 -58 65zM307 299h41c0 122 -22 146 -121 146c-60 0 -109 -10 -138 -21l-14 58
c63 21 119 28 174 28c118 0 176 -57 176 -176v-334h-44l-26 59c-63 -52 -99 -65 -157 -65c-95 0 -148 62 -148 151c0 96 77 154 257 154zM349 236h-45c-141 0 -179 -28 -179 -85c0 -53 31 -94 79 -94s86 19 145 74v105z" />
    <glyph glyph-name="Aring" unicode="&#xc5;" horiz-adv-x="579" 
d="M566 0h-84l-70 221h-251l-69 -221h-79l230 700h91zM395 286l-107 338l-108 -338h215zM289 972c77 0 113 -49 113 -109c0 -66 -34 -111 -112 -111s-112 45 -112 111c0 60 34 109 111 109zM290 928c-43 0 -56 -27 -56 -65c0 -37 10 -65 56 -65c48 0 58 28 58 65
c0 38 -13 65 -58 65z" />
    <glyph glyph-name="perthousand" unicode="&#x2030;" horiz-adv-x="1059" 
d="M594 688l-408 -688h-78l408 688h78zM546 286c-48 0 -71 -54 -71 -122s20 -120 70 -120c54 0 73 52 73 120s-22 122 -72 122zM545 336c105 0 133 -86 133 -173c0 -98 -35 -169 -135 -169c-90 0 -128 71 -128 169c0 87 35 173 130 173zM176 646c-48 0 -71 -54 -71 -122
s20 -120 70 -120c54 0 73 52 73 120s-22 122 -72 122zM175 696c105 0 133 -86 133 -173c0 -98 -35 -169 -135 -169c-90 0 -128 71 -128 169c0 87 35 173 130 173zM868 286c-48 0 -71 -54 -71 -122s20 -120 70 -120c54 0 73 52 73 120s-22 122 -72 122zM867 336
c105 0 133 -86 133 -173c0 -98 -35 -169 -135 -169c-90 0 -128 71 -128 169c0 87 35 173 130 173z" />
    <glyph glyph-name="florin" unicode="&#x192;" horiz-adv-x="310" 
d="M35 442l20 156c9 89 80 114 141 114c28 0 68 -4 92 -12l-16 -54c-18 3 -43 5 -60 5c-39 0 -79 -23 -85 -67l-18 -142h112l-7 -60h-112l-64 -525l-78 -10l67 535h-77l7 60h78z" />
    <glyph glyph-name="cedilla" unicode="&#xb8;" horiz-adv-x="377" 
d="M272 0c0 -66 -11 -92 -63 -177l-49 31c32 65 41 83 41 146h71z" />
    <glyph glyph-name="ordfeminine" unicode="&#xaa;" horiz-adv-x="363" 
d="M293 234h-239v55h239v-55zM215 550l26 -1c0 78 -14 88 -76 88c-39 0 -69 -6 -88 -14l-9 44c40 14 75 18 109 18c76 0 113 -37 113 -112v-212h-28l-16 38c-41 -34 -64 -41 -100 -41c-61 0 -94 39 -94 95c0 62 49 97 163 97zM238 505h-33c-83 0 -104 -14 -104 -49
c0 -30 18 -51 46 -51s56 12 91 45v55z" />
    <glyph glyph-name="ordmasculine" unicode="&#xba;" horiz-adv-x="370" 
d="M301 234h-239v54h239v-54zM182 650c-48 0 -71 -54 -71 -122s20 -120 70 -120c54 0 73 52 73 120s-22 122 -72 122zM181 700c105 0 133 -86 133 -173c0 -98 -35 -169 -135 -169c-90 0 -128 71 -128 169c0 87 35 173 130 173z" />
    <glyph glyph-name="onequarter" unicode="&#xbc;" horiz-adv-x="884" 
d="M653 688l-408 -688h-73l408 688h73zM692 0v85h-203v41l168 301h58l-163 -292h140v115h51v-116h68v-49h-68v-85h-51zM88 316v48h69v236l-82 -50l-20 49l103 63h50v-298h70v-48h-190z" />
    <glyph glyph-name="onesuperior" unicode="&#xb9;" horiz-adv-x="378" 
d="M206 662v-321h-50v259l-83 -50l-20 49l103 63h50zM86 316v48h190v-48h-190z" />
    <glyph glyph-name="threequarters" unicode="&#xbe;" horiz-adv-x="886" 
d="M128 504h41c49 0 76 24 76 62c0 39 -19 47 -70 47c-40 0 -73 -23 -73 -23l-10 46s41 25 90 25c77 0 111 -38 111 -93c0 -46 -29 -83 -70 -91c46 -6 82 -37 82 -84c0 -67 -47 -107 -127 -107c-57 0 -95 25 -95 25l13 43s30 -18 74 -18c46 0 84 16 84 52
c0 49 -38 63 -87 63h-39v53zM692 0v85h-203v41l168 301h58l-163 -292h140v115h52v-116h67v-49h-68v-85h-51zM653 688l-408 -688h-73l408 688h73z" />
    <glyph glyph-name="threesuperior" unicode="&#xb3;" horiz-adv-x="425" 
d="M141 505h41c49 0 76 24 76 62c0 39 -19 47 -70 47c-40 0 -73 -23 -73 -23l-10 46s41 25 90 25c77 0 111 -38 111 -93c0 -46 -29 -83 -70 -91c46 -6 82 -37 82 -84c0 -67 -47 -107 -127 -107c-57 0 -95 25 -95 25l13 43s30 -18 74 -18c46 0 84 16 84 52
c0 49 -38 63 -87 63h-39v53z" />
    <glyph glyph-name="oslash" unicode="&#xf8;" horiz-adv-x="518" 
d="M389 338l-211 -256c19 -16 47 -23 78 -23c97 0 144 61 144 193c0 27 -3 60 -11 86zM137 139l224 267c-24 25 -68 40 -108 40c-108 0 -136 -72 -136 -197c0 -42 10 -81 20 -110zM530 507l-87 -104c21 -40 32 -90 32 -149c0 -159 -78 -260 -218 -260c-49 0 -90 13 -123 36
l-60 -73l-52 44l68 79c-27 43 -48 106 -48 174c0 159 70 257 210 257c59 0 112 -22 149 -54l72 88z" />
    <glyph glyph-name="cent" unicode="&#xa2;" horiz-adv-x="381" 
d="M325 173l13 -63c-41 -12 -71 -18 -115 -18v-92h-65v94c-79 25 -114 105 -114 212c0 106 35 180 114 203v97h65v-96c47 0 89 -11 116 -19l-21 -60c-27 8 -56 13 -83 13c-84 0 -116 -34 -116 -138c0 -103 28 -148 108 -148c36 0 64 5 98 15z" />
    <glyph glyph-name="at" unicode="@" horiz-adv-x="907" 
d="M530 216l38 193c-13 11 -34 42 -88 42c-97 0 -148 -120 -148 -226c0 -77 36 -90 68 -90c50 0 78 26 130 81zM535 81l-8 66c-29 -28 -73 -71 -139 -71c-81 0 -118 62 -118 141c0 209 122 298 204 298c67 0 95 -36 113 -51l16 40h46l-73 -369c98 0 189 57 189 263
c0 149 -80 246 -289 246c-232 0 -330 -140 -330 -412c0 -200 75 -289 256 -289h173l2 -54c-53 -5 -130 -8 -179 -8c-212 0 -322 106 -322 328c0 305 113 500 401 500c285 0 353 -154 353 -315c0 -246 -116 -313 -295 -313z" />
    <glyph glyph-name="germandbls" unicode="&#xdf;" horiz-adv-x="568" 
d="M524 198c0 -132 -90 -204 -250 -204c-13 0 -23 2 -32 5v53c144 0 207 52 207 157c0 62 -53 132 -167 134h-28v64h27c68 0 140 51 140 121c0 68 -47 117 -125 117c-117 0 -130 -59 -130 -147v-498h-75v532c0 123 58 178 192 178c145 0 213 -87 213 -179
c0 -89 -50 -139 -133 -149c89 -11 161 -79 161 -184z" />
    <glyph glyph-name="Euro" unicode="&#x20ac;" horiz-adv-x="630" 
d="M174 305h247v-65h-240c26 -114 102 -181 210 -181c70 0 133 24 171 39l20 -52c-33 -20 -97 -52 -188 -52c-162 0 -262 99 -290 246h-83v65h77c0 9 -1 47 -1 57c0 16 1 24 2 39h-78v65h88c34 150 138 244 297 244c61 0 100 -9 156 -30l-18 -62c-50 21 -110 27 -145 27
c-111 0 -186 -69 -214 -179h236v-66h-246c-1 -18 -2 -22 -2 -43c0 -17 0 -33 1 -52z" />
    <glyph glyph-name="thorn" unicode="&#xfe;" horiz-adv-x="546" 
d="M91 700h75v-250c51 36 97 61 154 61c129 0 180 -101 180 -259c0 -203 -103 -258 -198 -258c-57 0 -109 28 -137 50v-245h-74v901zM166 379v-272c28 -33 79 -49 119 -49c107 0 140 64 140 192c0 133 -49 196 -110 196c-70 0 -117 -39 -149 -67z" />
    <glyph glyph-name="macron" unicode="&#xaf;" horiz-adv-x="497" 
d="M88 614v65h317v-65h-317z" />
    <glyph glyph-name="uni00A0" unicode="&#xa0;" horiz-adv-x="400" 
 />
    <glyph glyph-name="kgreenlandic" unicode="&#x138;" horiz-adv-x="509" 
d="M91 500h75v-212l214 212h95l-212 -203l223 -297h-85l-182 250l-53 -54v-196h-75v500z" />
    <glyph glyph-name="currency" unicode="&#xa4;" horiz-adv-x="608" 
d="M302 61c-59 0 -106 15 -141 44l-55 -55l-45 46l58 58c-22 37 -33 85 -33 140c0 53 9 98 28 135l-59 60l53 53l54 -54c34 26 79 41 136 41c61 0 111 -17 148 -48l63 63l46 -46l-66 -66c23 -37 35 -84 35 -138s-12 -100 -33 -137l62 -62l-53 -53l-60 59
c-35 -26 -82 -40 -138 -40zM300 464c-100 0 -144 -76 -144 -173c0 -95 58 -165 145 -165c100 0 153 63 153 165c0 100 -56 173 -154 173z" />
    <glyph glyph-name="uni00AD" unicode="&#xad;" horiz-adv-x="400" 
d="M400 257h-400v65h400v-65z" />
  </font>
</defs>
</svg>
